<svg width="930" height="234" viewBox="0 0 930 234" fill="none" xmlns="http://www.w3.org/2000/svg">
<g filter="url(#filter0_dd)">
<path d="M208.32 210.424L208.445 207.927L208.445 207.927L208.32 210.424ZM175.488 210.424L175.341 207.928L175.332 207.929L175.488 210.424ZM176.928 205.528L175.976 203.216L175.976 203.216L176.928 205.528ZM178.08 186.232L180.361 185.209L180.352 185.188L180.342 185.167L178.08 186.232ZM152.448 131.8L154.71 130.735L154.034 129.3H152.448V131.8ZM83.904 131.8V129.3H82.2511L81.6037 130.821L83.904 131.8ZM65.76 174.424L63.4597 173.445L63.4539 173.458L63.4483 173.472L65.76 174.424ZM68.64 203.512L67.315 205.632L67.366 205.664L67.4185 205.693L68.64 203.512ZM74.976 210.424L75.1228 207.928L75.1151 207.928L75.1074 207.927L74.976 210.424ZM38.688 210.424L38.5412 207.928L38.5314 207.929L38.5217 207.93L38.688 210.424ZM37.824 204.664L38.9884 206.876L39.0087 206.866L39.0288 206.855L37.824 204.664ZM48.48 194.008L46.3999 192.621L46.3937 192.631L46.3876 192.64L48.48 194.008ZM59.712 171.832L57.4101 170.857L57.407 170.864L59.712 171.832ZM120.48 28.408L118.4 27.0213L118.27 27.2166L118.178 27.4327L120.48 28.408ZM124.224 28.408L121.852 29.1986L121.9 29.3429L121.966 29.4804L124.224 28.408ZM192.192 171.544L194.464 170.5L194.457 170.486L194.45 170.472L192.192 171.544ZM208.896 200.344L207.059 202.04L207.076 202.058L207.093 202.075L208.896 200.344ZM86.208 126.04L83.9039 125.07L82.4428 128.54H86.208V126.04ZM149.856 126.04V128.54H153.807L152.115 124.97L149.856 126.04ZM116.16 54.904L118.419 53.8338L116.026 48.7806L113.856 53.9338L116.16 54.904ZM225.312 210.044C225.19 210.044 224.962 210.02 224.698 209.888C224.424 209.751 224.223 209.553 224.096 209.363C223.98 209.189 223.953 209.063 223.952 209.058C223.95 209.052 223.964 209.115 223.964 209.272H228.964C228.964 208.497 228.849 207.479 228.256 206.589C227.544 205.521 226.424 205.044 225.312 205.044V210.044ZM223.964 209.272C223.964 209.429 223.95 209.492 223.952 209.486C223.953 209.481 223.98 209.355 224.096 209.181C224.223 208.991 224.424 208.793 224.698 208.656C224.962 208.524 225.19 208.5 225.312 208.5V213.5C226.424 213.5 227.544 213.023 228.256 211.955C228.849 211.065 228.964 210.047 228.964 209.272H223.964ZM225.312 208.5C221.73 208.5 216.118 208.311 208.445 207.927L208.195 212.921C215.882 213.305 221.598 213.5 225.312 213.5V208.5ZM208.445 207.927C200.761 207.543 195.139 207.348 191.616 207.348V212.348C195.005 212.348 200.519 212.537 208.195 212.921L208.445 207.927ZM191.616 207.348C187.324 207.348 181.895 207.543 175.341 207.928L175.635 212.92C182.137 212.537 187.46 212.348 191.616 212.348V207.348ZM175.332 207.929C169.203 208.312 164.561 208.5 161.376 208.5V213.5C164.719 213.5 169.485 213.304 175.644 212.919L175.332 207.929ZM161.376 208.5C161.498 208.5 161.726 208.524 161.99 208.656C162.264 208.793 162.465 208.991 162.592 209.181C162.708 209.355 162.735 209.481 162.736 209.486C162.738 209.492 162.724 209.429 162.724 209.272H157.724C157.724 210.047 157.839 211.065 158.432 211.955C159.144 213.023 160.264 213.5 161.376 213.5V208.5ZM162.724 209.272C162.724 209.115 162.738 209.052 162.736 209.058C162.735 209.063 162.708 209.189 162.592 209.363C162.465 209.553 162.264 209.751 161.99 209.888C161.726 210.02 161.498 210.044 161.376 210.044V205.044C160.264 205.044 159.144 205.521 158.432 206.589C157.839 207.479 157.724 208.497 157.724 209.272H162.724ZM161.376 210.044C168.543 210.044 174.14 209.379 177.88 207.84L175.976 203.216C173.188 204.365 168.417 205.044 161.376 205.044V210.044ZM177.88 207.84C179.84 207.032 181.49 205.861 182.64 204.237C183.8 202.599 184.324 200.682 184.324 198.616H179.324C179.324 199.814 179.032 200.681 178.56 201.347C178.078 202.027 177.28 202.68 175.976 203.216L177.88 207.84ZM184.324 198.616C184.324 195.348 182.864 190.792 180.361 185.209L175.799 187.255C178.288 192.808 179.324 196.508 179.324 198.616H184.324ZM180.342 185.167L154.71 130.735L150.186 132.865L175.818 187.297L180.342 185.167ZM152.448 129.3H83.904V134.3H152.448V129.3ZM81.6037 130.821L63.4597 173.445L68.0603 175.403L86.2043 132.779L81.6037 130.821ZM63.4483 173.472C60.7153 180.11 59.228 185.747 59.228 190.264H64.228C64.228 186.717 65.4288 181.794 68.0717 175.376L63.4483 173.472ZM59.228 190.264C59.228 196.98 61.8964 202.245 67.315 205.632L69.965 201.392C66.1676 199.019 64.228 195.452 64.228 190.264H59.228ZM67.4185 205.693C72.7699 208.69 80.382 210.044 89.952 210.044V205.044C80.706 205.044 74.1101 203.71 69.8615 201.331L67.4185 205.693ZM89.952 210.044C89.9471 210.044 89.8299 210.044 89.6535 209.973C89.4618 209.897 89.2665 209.762 89.1114 209.576C88.8221 209.229 88.892 208.982 88.892 209.272H93.892C93.892 208.41 93.7219 207.299 92.9526 206.376C92.1104 205.365 90.9493 205.044 89.952 205.044V210.044ZM88.892 209.272C88.892 209.562 88.8221 209.315 89.1114 208.968C89.2665 208.782 89.4618 208.647 89.6535 208.571C89.8299 208.5 89.9471 208.5 89.952 208.5V213.5C90.9493 213.5 92.1104 213.179 92.9526 212.168C93.7219 211.245 93.892 210.134 93.892 209.272H88.892ZM89.952 208.5C86.5705 208.5 81.6368 208.311 75.1228 207.928L74.8292 212.92C81.3712 213.305 86.4215 213.5 89.952 213.5V208.5ZM75.1074 207.927C67.782 207.542 61.4002 207.348 55.968 207.348V212.348C61.2879 212.348 67.578 212.538 74.8446 212.921L75.1074 207.927ZM55.968 207.348C50.9148 207.348 45.1041 207.542 38.5412 207.928L38.8348 212.92C45.3279 212.538 51.0372 212.348 55.968 212.348V207.348ZM38.5217 207.93C32.7925 208.311 28.0524 208.5 24.288 208.5V213.5C28.2036 213.5 33.0635 213.305 38.8543 212.918L38.5217 207.93ZM24.288 208.5C24.2929 208.5 24.4101 208.5 24.5865 208.571C24.7782 208.647 24.9735 208.782 25.1286 208.968C25.4179 209.315 25.348 209.562 25.348 209.272H20.348C20.348 210.134 20.5181 211.245 21.2874 212.168C22.1296 213.179 23.2907 213.5 24.288 213.5V208.5ZM25.348 209.272C25.348 208.982 25.4179 209.229 25.1286 209.576C24.9735 209.762 24.7782 209.897 24.5865 209.973C24.4101 210.044 24.2929 210.044 24.288 210.044V205.044C23.2907 205.044 22.1296 205.365 21.2874 206.376C20.5181 207.299 20.348 208.41 20.348 209.272H25.348ZM24.288 210.044C29.9504 210.044 34.8888 209.034 38.9884 206.876L36.6596 202.452C33.4632 204.134 29.3776 205.044 24.288 205.044V210.044ZM39.0288 206.855C43.3335 204.487 47.1615 200.593 50.5724 195.376L46.3876 192.64C43.2705 197.407 39.9945 200.617 36.6192 202.473L39.0288 206.855ZM50.5601 195.395C54.1431 190.02 57.9585 182.463 62.017 172.8L57.407 170.864C53.4015 180.401 49.7289 187.628 46.3999 192.621L50.5601 195.395ZM62.0139 172.807L122.782 29.3833L118.178 27.4327L57.4101 170.857L62.0139 172.807ZM122.56 29.7947C122.521 29.854 122.468 29.9135 122.405 29.9649C122.343 30.0156 122.289 30.0441 122.257 30.0579C122.201 30.0819 122.254 30.044 122.496 30.044V25.044C121.053 25.044 119.414 25.5 118.4 27.0213L122.56 29.7947ZM122.496 30.044C122.763 30.044 122.717 30.0898 122.53 29.9961C122.422 29.942 122.278 29.8463 122.139 29.6909C121.999 29.5332 121.906 29.3593 121.852 29.1986L126.596 27.6174C125.879 25.466 123.8 25.044 122.496 25.044V30.044ZM121.966 29.4804L189.934 172.616L194.45 170.472L126.482 27.3356L121.966 29.4804ZM189.92 172.588C196.453 186.805 202.158 196.73 207.059 202.04L210.733 198.648C206.418 193.974 200.987 184.699 194.464 170.5L189.92 172.588ZM207.093 202.075C212.145 207.339 218.258 210.044 225.312 210.044V205.044C219.694 205.044 214.863 202.949 210.699 198.613L207.093 202.075ZM86.208 128.54H149.856V123.54H86.208V128.54ZM152.115 124.97L118.419 53.8338L113.901 55.9742L147.597 127.11L152.115 124.97ZM113.856 53.9338L83.9039 125.07L88.5121 127.01L118.464 55.8741L113.856 53.9338ZM357.547 69.016H360.047V68.9957L360.046 68.9753L357.547 69.016ZM356.107 70.168V72.668H356.354L356.597 72.6194L356.107 70.168ZM354.379 69.304L351.883 69.4453L351.902 69.7782L352.007 70.0946L354.379 69.304ZM345.163 45.688L343.365 47.4256L343.38 47.4408L343.395 47.4558L345.163 45.688ZM290.731 38.488L290.025 36.0896L290.025 36.0896L290.731 38.488ZM283.819 43.672L281.618 42.4867L281.581 42.5545L281.549 42.6243L283.819 43.672ZM282.091 117.688H279.591V120.188H282.091V117.688ZM332.779 113.08L334.249 115.102L334.257 115.096L334.265 115.09L332.779 113.08ZM342.859 97.528L345.359 97.5589L345.359 97.5434V97.528H342.859ZM342.571 120.856L340.071 120.825L340.071 120.841V120.856H342.571ZM342.859 133.528L345.358 133.476L345.357 133.419L345.353 133.362L342.859 133.528ZM343.147 147.352H345.647V147.326L345.646 147.3L343.147 147.352ZM332.779 129.208L331.187 131.135L331.207 131.152L331.227 131.168L332.779 129.208ZM282.091 123.736V121.236H279.591V123.736H282.091ZM284.395 200.056L282.189 201.232L282.237 201.322L282.292 201.408L284.395 200.056ZM294.187 205.816L294.77 203.385L294.77 203.385L294.187 205.816ZM298.507 210.712L298.615 208.214L298.575 208.213L298.535 208.212L298.507 210.712ZM272.587 210.424L272.615 207.924L272.582 207.924L272.55 207.924L272.587 210.424ZM253.003 210.712L252.966 208.212L252.915 208.213L252.864 208.216L253.003 210.712ZM261.355 200.632L259.089 199.575L259.073 199.611L259.057 199.647L261.355 200.632ZM261.355 41.656L259.057 42.6408L259.086 42.7083L259.119 42.774L261.355 41.656ZM254.443 36.184L253.611 38.5415L253.691 38.5699L253.774 38.5928L254.443 36.184ZM356.971 33.592H354.471V33.6123L354.471 33.6326L356.971 33.592ZM355.047 69.016C355.047 68.801 355.095 68.5462 355.221 68.294C355.344 68.0465 355.504 67.881 355.625 67.7838C355.829 67.6207 355.913 67.6573 355.616 67.7165L356.597 72.6194C357.261 72.4867 358.065 72.2353 358.748 71.6882C359.536 71.0584 360.047 70.1203 360.047 69.016H355.047ZM356.107 67.668C355.84 67.668 355.885 67.6222 356.073 67.7159C356.181 67.7699 356.325 67.8657 356.463 68.0211C356.603 68.1788 356.697 68.3527 356.75 68.5134L352.007 70.0946C352.724 72.246 354.802 72.668 356.107 72.668V67.668ZM356.875 69.1627C356.275 58.5588 353.048 50.0379 346.931 43.9202L343.395 47.4558C348.413 52.4741 351.331 59.6972 351.883 69.4453L356.875 69.1627ZM346.96 43.9504C340.849 37.6287 332.769 34.548 322.987 34.548V39.548C331.636 39.548 338.34 42.2273 343.365 47.4256L346.96 43.9504ZM322.987 34.548H305.419V39.548H322.987V34.548ZM305.419 34.548C298.828 34.548 293.642 35.0259 290.025 36.0896L291.436 40.8864C294.348 40.03 298.953 39.548 305.419 39.548V34.548ZM290.025 36.0896C286.258 37.1976 283.34 39.2876 281.618 42.4867L286.02 44.8572C286.985 43.0643 288.675 41.6984 291.436 40.8864L290.025 36.0896ZM281.549 42.6243C280.172 45.6083 279.591 49.6851 279.591 54.616H284.591C284.591 49.9469 285.162 46.7277 286.089 44.7196L281.549 42.6243ZM279.591 54.616V117.688H284.591V54.616H279.591ZM282.091 120.188H311.179V115.188H282.091V120.188ZM311.179 120.188C321.46 120.188 329.35 118.665 334.249 115.102L331.308 111.058C327.759 113.639 321.25 115.188 311.179 115.188V120.188ZM334.265 115.09C339.5 111.221 341.903 105.169 341.903 97.528H336.903C336.903 104.095 334.89 108.411 331.293 111.07L334.265 115.09ZM341.903 97.528C341.903 98.1384 341.644 98.6785 341.279 99.0438C340.975 99.3476 340.684 99.4482 340.625 99.4677C340.522 99.502 340.628 99.452 341.131 99.452V94.452C340.482 94.452 339.723 94.498 339.044 94.7243C338.43 94.9292 336.903 95.6754 336.903 97.528H341.903ZM341.131 99.452C341.634 99.452 341.739 99.502 341.636 99.4677C341.578 99.4482 341.287 99.3476 340.983 99.0438C340.618 98.6785 340.359 98.1384 340.359 97.528H345.359C345.359 95.6754 343.832 94.9292 343.217 94.7243C342.538 94.498 341.78 94.452 341.131 94.452V99.452ZM340.359 97.4971L340.071 120.825L345.071 120.887L345.359 97.5589L340.359 97.4971ZM340.071 120.856C340.071 126.439 340.167 130.729 340.364 133.694L345.353 133.362C345.167 130.567 345.071 126.409 345.071 120.856H340.071ZM340.359 133.58L340.647 147.404L345.646 147.3L345.358 133.476L340.359 133.58ZM340.647 147.352C340.647 146.742 340.906 146.202 341.271 145.836C341.575 145.532 341.866 145.432 341.924 145.412C342.027 145.378 341.922 145.428 341.419 145.428V150.428C342.068 150.428 342.826 150.382 343.505 150.156C344.12 149.951 345.647 149.205 345.647 147.352H340.647ZM341.419 145.428C340.916 145.428 340.81 145.378 340.913 145.412C340.972 145.432 341.263 145.532 341.567 145.836C341.932 146.202 342.191 146.742 342.191 147.352H337.191C337.191 149.205 338.718 149.951 339.332 150.156C340.011 150.382 340.77 150.428 341.419 150.428V145.428ZM342.191 147.352C342.191 138.489 339.766 131.551 334.331 127.248L331.227 131.168C335.007 134.161 337.191 139.319 337.191 147.352H342.191ZM334.371 127.281C329.26 123.059 321.025 121.236 310.315 121.236V126.236C320.725 126.236 327.465 128.061 331.187 131.135L334.371 127.281ZM310.315 121.236H282.091V126.236H310.315V121.236ZM279.591 123.736V186.52H284.591V123.736H279.591ZM279.591 186.52C279.591 192.772 280.355 197.794 282.189 201.232L286.601 198.88C285.362 196.558 284.591 192.556 284.591 186.52H279.591ZM282.292 201.408C284.517 204.869 288.508 207.024 293.603 208.247L294.77 203.385C290.266 202.304 287.729 200.619 286.498 198.704L282.292 201.408ZM293.603 208.247C298.707 209.472 306.54 210.044 316.939 210.044V205.044C306.601 205.044 299.266 204.464 294.77 203.385L293.603 208.247ZM316.939 210.044C316.645 210.044 316.277 209.963 315.93 209.732C315.599 209.511 315.427 209.247 315.351 209.094C315.279 208.951 315.274 208.875 315.283 208.927C315.29 208.973 315.303 209.081 315.303 209.272H320.303C320.303 208.568 320.228 207.668 319.823 206.858C319.603 206.417 319.251 205.937 318.704 205.572C318.141 205.197 317.52 205.044 316.939 205.044V210.044ZM315.303 209.272C315.303 209.463 315.29 209.571 315.283 209.617C315.274 209.669 315.279 209.593 315.351 209.45C315.427 209.297 315.599 209.033 315.93 208.812C316.277 208.581 316.645 208.5 316.939 208.5V213.5C317.52 213.5 318.141 213.347 318.704 212.972C319.251 212.607 319.603 212.127 319.823 211.686C320.228 210.876 320.303 209.976 320.303 209.272H315.303ZM316.939 208.5C309.08 208.5 302.978 208.404 298.615 208.214L298.398 213.21C302.868 213.404 309.054 213.5 316.939 213.5V208.5ZM298.535 208.212L272.615 207.924L272.559 212.924L298.479 213.212L298.535 208.212ZM272.55 207.924L252.966 208.212L253.04 213.212L272.624 212.924L272.55 207.924ZM252.864 208.216C249.477 208.404 244.636 208.5 238.315 208.5V213.5C244.666 213.5 249.616 213.404 253.141 213.208L252.864 208.216ZM238.315 208.5C238.925 208.5 239.465 208.759 239.831 209.124C240.134 209.428 240.235 209.719 240.254 209.777C240.289 209.88 240.239 209.775 240.239 209.272H235.239C235.239 209.921 235.285 210.68 235.511 211.359C235.716 211.973 236.462 213.5 238.315 213.5V208.5ZM240.239 209.272C240.239 208.769 240.289 208.664 240.254 208.767C240.235 208.825 240.134 209.116 239.831 209.42C239.465 209.785 238.925 210.044 238.315 210.044V205.044C236.462 205.044 235.716 206.571 235.511 207.185C235.285 207.864 235.239 208.623 235.239 209.272H240.239ZM238.315 210.044C245.654 210.044 251.313 209.568 255.112 208.513L253.774 203.695C250.66 204.56 245.567 205.044 238.315 205.044V210.044ZM255.112 208.513C259.116 207.4 262.134 205.159 263.653 201.617L259.057 199.647C258.271 201.481 256.681 202.887 253.774 203.695L255.112 208.513ZM263.62 201.689C265.198 198.309 265.871 193.547 265.871 187.672H260.871C260.871 193.317 260.2 197.195 259.089 199.575L263.62 201.689ZM265.871 187.672V54.328H260.871V187.672H265.871ZM265.871 54.328C265.871 48.4731 265.204 43.7642 263.591 40.538L259.119 42.774C260.194 44.9238 260.871 48.6629 260.871 54.328H265.871ZM263.653 40.6712C262.134 37.1287 259.116 34.8875 255.112 33.7752L253.774 38.5928C256.681 39.4005 258.271 40.8073 259.057 42.6408L263.653 40.6712ZM255.275 33.8265C251.584 32.5238 245.939 31.956 238.603 31.956V36.956C245.858 36.956 250.774 37.5402 253.611 38.5415L255.275 33.8265ZM238.603 31.956C239.213 31.956 239.753 32.2149 240.119 32.5802C240.422 32.8841 240.523 33.175 240.542 33.2334C240.577 33.3363 240.527 33.231 240.527 32.728H235.527C235.527 33.377 235.573 34.1357 235.799 34.8146C236.004 35.4292 236.75 36.956 238.603 36.956V31.956ZM240.527 32.728C240.527 32.225 240.577 32.1197 240.542 32.2226C240.523 32.281 240.422 32.5719 240.119 32.8758C239.753 33.241 239.213 33.5 238.603 33.5V28.5C236.75 28.5 236.004 30.0268 235.799 30.6414C235.573 31.3203 235.527 32.079 235.527 32.728H240.527ZM238.603 33.5H354.379V28.5H238.603V33.5ZM354.379 33.5C354.492 33.5 354.575 33.5071 354.633 33.5154C354.69 33.5236 354.718 33.5323 354.722 33.5337C354.726 33.5349 354.706 33.5286 354.672 33.5082C354.637 33.4873 354.596 33.4567 354.555 33.4158C354.514 33.3748 354.483 33.3336 354.463 33.2987C354.442 33.2648 354.436 33.2451 354.437 33.2486C354.438 33.2528 354.447 33.2804 354.455 33.338C354.464 33.3959 354.471 33.4792 354.471 33.592H359.471C359.471 32.3426 359.157 30.9464 358.091 29.8802C357.024 28.814 355.628 28.5 354.379 28.5V33.5ZM354.471 33.6326L355.047 69.0566L360.046 68.9753L359.47 33.5513L354.471 33.6326ZM399.822 45.4L398.054 43.6322L398.04 43.6462L398.026 43.6605L399.822 45.4ZM386.862 76.792L384.402 76.3448L384.362 76.5666V76.792H386.862ZM383.694 76.792L381.209 76.5159L381.194 76.6535V76.792H383.694ZM386.286 49.72L388.777 49.9347L388.777 49.9347L386.286 49.72ZM406.446 31L406.534 28.5016L406.49 28.5H406.446V31ZM500.334 31.288L500.297 28.7883L500.278 28.7886L500.258 28.7891L500.334 31.288ZM519.918 31V28.5H519.9L519.881 28.5003L519.918 31ZM535.182 29.56L534.513 27.1512L534.495 27.1562L534.477 27.1616L535.182 29.56ZM541.806 23.8L544.178 24.5906L544.208 24.4995L544.231 24.4063L541.806 23.8ZM544.974 23.8L547.461 24.0572L547.474 23.929V23.8H544.974ZM543.246 49.144L540.749 49.017L540.749 49.017L543.246 49.144ZM538.926 76.792H541.426V76.7439L541.424 76.6959L538.926 76.792ZM529.71 45.4L527.858 47.0788L527.871 47.0934L527.884 47.1079L529.71 45.4ZM476.142 200.632L478.378 199.514L478.378 199.514L476.142 200.632ZM483.918 206.104L483.312 208.529L483.312 208.529L483.918 206.104ZM486.798 210.712L486.923 208.215L486.876 208.213L486.83 208.212L486.798 210.712ZM464.334 210.424L464.366 207.924L464.333 207.924L464.301 207.924L464.334 210.424ZM442.734 210.712L442.701 208.212L442.655 208.213L442.609 208.215L442.734 210.712ZM452.814 200.632L450.608 199.456L450.593 199.485L450.578 199.514L452.814 200.632ZM453.102 41.944L450.901 43.1292L450.921 43.1668L450.943 43.2037L453.102 41.944ZM445.614 37.336L445.099 39.7824L445.161 39.7955L445.224 39.8054L445.614 37.336ZM427.182 33.684C414.687 33.684 404.826 36.8607 398.054 43.6322L401.59 47.1678C407.106 41.6513 415.485 38.684 427.182 38.684V33.684ZM398.026 43.6605C391.556 50.3394 387.12 61.3975 384.402 76.3448L389.322 77.2392C391.98 62.6185 396.184 52.7486 401.618 47.1395L398.026 43.6605ZM384.362 76.792C384.362 76.1816 384.621 75.6415 384.986 75.2762C385.29 74.9724 385.581 74.8717 385.639 74.8523C385.742 74.818 385.637 74.868 385.134 74.868V79.868C385.783 79.868 386.542 79.822 387.221 79.5957C387.835 79.3908 389.362 78.6446 389.362 76.792H384.362ZM385.134 74.868C384.747 74.868 384.773 74.8189 384.982 74.9028C385.109 74.9534 385.417 75.0988 385.705 75.4435C386.029 75.8326 386.194 76.3187 386.194 76.792H381.194C381.194 77.4573 381.419 78.1114 381.863 78.6445C382.271 79.1332 382.759 79.3985 383.126 79.5452C383.815 79.8211 384.561 79.868 385.134 79.868V74.868ZM386.179 77.0681C386.95 70.1272 387.816 61.0805 388.777 49.9347L383.795 49.5053C382.836 60.6314 381.974 69.6327 381.209 76.5159L386.179 77.0681ZM388.777 49.9347C389.738 38.7832 390.226 30.3437 390.226 24.664H385.226C385.226 30.1203 384.754 38.3848 383.795 49.5053L388.777 49.9347ZM390.226 24.664C390.226 24.5694 390.248 24.9576 389.854 25.3518C389.46 25.746 389.071 25.724 389.166 25.724V20.724C388.301 20.724 387.192 20.942 386.318 21.8162C385.444 22.6904 385.226 23.7986 385.226 24.664H390.226ZM389.166 25.724C389.456 25.724 389.209 25.7939 388.862 25.5046C388.676 25.3495 388.541 25.1542 388.465 24.9625C388.394 24.7861 388.394 24.6689 388.394 24.664H393.394C393.394 23.6667 393.073 22.5056 392.062 21.6634C391.139 20.8941 390.028 20.724 389.166 20.724V25.724ZM388.394 24.664C388.394 26.2771 388.905 27.7652 389.931 29.0191C390.923 30.231 392.292 31.101 393.839 31.7312C396.887 32.973 401.167 33.5 406.446 33.5V28.5C401.357 28.5 397.861 27.971 395.725 27.1008C394.68 26.675 394.105 26.225 393.801 25.8529C393.531 25.5228 393.394 25.1629 393.394 24.664H388.394ZM406.358 33.4984C422.716 34.0758 442.042 34.364 464.334 34.364V29.364C442.082 29.364 422.816 29.0762 406.534 28.5016L406.358 33.4984ZM464.334 34.364C475.69 34.364 487.715 34.1715 500.41 33.7868L500.258 28.7891C487.609 29.1725 475.634 29.364 464.334 29.364V34.364ZM500.371 33.7877L519.955 33.4997L519.881 28.5003L500.297 28.7883L500.371 33.7877ZM519.918 33.5C526.876 33.5 532.263 33.0244 535.887 31.9584L534.477 27.1616C531.573 28.0156 526.784 28.5 519.918 28.5V33.5ZM535.851 31.9688C539.941 30.8327 542.904 28.4115 544.178 24.5906L539.434 23.0094C538.788 24.9485 537.335 26.3672 534.513 27.1512L535.851 31.9688ZM544.231 24.4063C544.22 24.453 544.186 24.5568 544.102 24.6827C544.015 24.8134 543.899 24.929 543.769 25.0161C543.516 25.1849 543.363 25.148 543.534 25.148V20.148C542.745 20.148 541.824 20.3031 540.995 20.8559C540.115 21.4424 539.604 22.299 539.381 23.1937L544.231 24.4063ZM543.534 25.148C543.747 25.148 543.444 25.2015 543.052 24.8882C542.839 24.7177 542.675 24.495 542.576 24.2575C542.484 24.0353 542.474 23.8641 542.474 23.8H547.474C547.474 22.8642 547.154 21.7664 546.176 20.9838C545.304 20.2865 544.281 20.148 543.534 20.148V25.148ZM542.487 23.5427C541.904 29.1785 541.326 37.6801 540.749 49.017L545.743 49.2709C546.318 37.9519 546.892 29.5575 547.461 24.0572L542.487 23.5427ZM540.749 49.017C540.172 60.3656 539.882 69.6284 539.882 76.792H544.882C544.882 69.7476 545.168 60.5783 545.743 49.2709L540.749 49.017ZM539.882 76.792C539.882 76.1816 540.141 75.6415 540.506 75.2762C540.81 74.9724 541.101 74.8717 541.159 74.8523C541.262 74.818 541.157 74.868 540.654 74.868V79.868C541.303 79.868 542.062 79.822 542.741 79.5957C543.355 79.3908 544.882 78.6446 544.882 76.792H539.882ZM540.654 74.868C540.151 74.868 540.046 74.818 540.149 74.8523C540.207 74.8717 540.498 74.9724 540.802 75.2762C541.167 75.6415 541.426 76.1816 541.426 76.792H536.426C536.426 78.6446 537.953 79.3908 538.567 79.5957C539.246 79.822 540.005 79.868 540.654 79.868V74.868ZM541.424 76.6959C540.842 61.5658 537.741 50.3256 531.536 43.6921L527.884 47.1079C532.815 52.3784 535.858 62.0662 536.428 76.8881L541.424 76.6959ZM531.562 43.7212C525.312 36.8244 515.246 33.684 502.062 33.684V38.684C514.606 38.684 522.972 41.6876 527.858 47.0788L531.562 43.7212ZM502.062 33.684C493.415 33.684 487.041 34.0631 483.115 34.8896L484.145 39.7824C487.515 39.0729 493.429 38.684 502.062 38.684V33.684ZM483.115 34.8896C478.989 35.7583 475.736 37.7125 473.941 41.0467L478.343 43.4172C479.236 41.7595 480.975 40.4497 484.145 39.7824L483.115 34.8896ZM473.941 41.0467C472.281 44.1289 471.626 48.8987 471.626 54.904H476.626C476.626 49.0053 477.315 45.3271 478.343 43.4172L473.941 41.0467ZM471.626 54.904V187.672H476.626V54.904H471.626ZM471.626 187.672C471.626 193.703 472.289 198.517 473.906 201.75L478.378 199.514C477.307 197.371 476.626 193.545 476.626 187.672H471.626ZM473.906 201.75C475.672 205.283 479.003 207.452 483.312 208.529L484.524 203.679C481.153 202.836 479.3 201.357 478.378 199.514L473.906 201.75ZM483.312 208.529C487.466 209.568 493.773 210.044 502.062 210.044V205.044C493.84 205.044 488.05 204.56 484.524 203.679L483.312 208.529ZM502.062 210.044C501.769 210.044 501.4 209.963 501.053 209.732C500.722 209.511 500.55 209.247 500.474 209.094C500.403 208.951 500.397 208.875 500.406 208.927C500.414 208.973 500.426 209.081 500.426 209.272H505.426C505.426 208.568 505.351 207.668 504.946 206.858C504.726 206.417 504.374 205.937 503.827 205.572C503.264 205.197 502.643 205.044 502.062 205.044V210.044ZM500.426 209.272C500.426 209.463 500.414 209.571 500.406 209.617C500.397 209.669 500.403 209.593 500.474 209.45C500.55 209.297 500.722 209.033 501.053 208.812C501.4 208.581 501.769 208.5 502.062 208.5V213.5C502.643 213.5 503.264 213.347 503.827 212.972C504.374 212.607 504.726 212.127 504.946 211.686C505.351 210.876 505.426 209.976 505.426 209.272H500.426ZM502.062 208.5C495.745 208.5 490.703 208.404 486.923 208.215L486.673 213.209C490.573 213.404 495.707 213.5 502.062 213.5V208.5ZM486.83 208.212L464.366 207.924L464.302 212.924L486.766 213.212L486.83 208.212ZM464.301 207.924L442.701 208.212L442.767 213.212L464.367 212.924L464.301 207.924ZM442.609 208.215C438.83 208.404 433.598 208.5 426.894 208.5V213.5C433.63 213.5 438.958 213.404 442.859 213.209L442.609 208.215ZM426.894 208.5C427.504 208.5 428.044 208.759 428.41 209.124C428.714 209.428 428.814 209.719 428.834 209.777C428.868 209.88 428.818 209.775 428.818 209.272H423.818C423.818 209.921 423.864 210.68 424.09 211.359C424.295 211.973 425.041 213.5 426.894 213.5V208.5ZM428.818 209.272C428.818 208.769 428.868 208.664 428.834 208.767C428.814 208.825 428.714 209.116 428.41 209.42C428.044 209.785 427.504 210.044 426.894 210.044V205.044C425.041 205.044 424.295 206.571 424.09 207.185C423.864 207.864 423.818 208.623 423.818 209.272H428.818ZM426.894 210.044C435.184 210.044 441.49 209.568 445.644 208.529L444.432 203.679C440.906 204.56 435.117 205.044 426.894 205.044V210.044ZM445.644 208.529C449.953 207.452 453.284 205.283 455.05 201.75L450.578 199.514C449.656 201.357 447.803 202.836 444.432 203.679L445.644 208.529ZM455.02 201.808C456.845 198.386 457.618 193.573 457.618 187.672H452.618C452.618 193.291 451.855 197.118 450.608 199.456L455.02 201.808ZM457.618 187.672V54.328H452.618V187.672H457.618ZM457.618 54.328C457.618 48.3545 456.973 43.6182 455.261 40.6843L450.943 43.2037C451.919 44.8778 452.618 48.3975 452.618 54.328H457.618ZM455.303 40.7587C453.482 37.3763 450.168 35.5241 446.004 34.8666L445.224 39.8054C448.356 40.2998 450.034 41.5196 450.901 43.1292L455.303 40.7587ZM446.129 34.8896C442.203 34.0631 435.829 33.684 427.182 33.684V38.684C435.815 38.684 441.729 39.0729 445.099 39.7824L446.129 34.8896ZM692.081 168.088L694.54 168.539L694.581 168.315V168.088H692.081ZM694.673 167.8L693.555 170.036L693.714 170.116L693.883 170.172L694.673 167.8ZM695.537 168.664L698.012 169.018L698.037 168.842V168.664H695.537ZM691.793 210.136L693.561 211.904L693.561 211.904L691.793 210.136ZM583.505 206.104L582.836 203.695L582.818 203.7L582.8 203.706L583.505 206.104ZM590.417 200.632L588.152 199.575L588.135 199.611L588.119 199.647L590.417 200.632ZM590.417 41.656L588.119 42.6408L588.148 42.7083L588.181 42.774L590.417 41.656ZM583.505 36.184L582.673 38.5415L582.754 38.5699L582.836 38.5928L583.505 36.184ZM686.033 33.592H683.533V33.6123L683.534 33.6326L686.033 33.592ZM686.609 69.016H689.109V68.9957L689.109 68.9753L686.609 69.016ZM685.169 70.168V72.668H685.417L685.66 72.6194L685.169 70.168ZM683.441 69.304L680.945 69.4453L680.964 69.7782L681.07 70.0946L683.441 69.304ZM674.225 45.688L672.428 47.4256L672.443 47.4408L672.457 47.4558L674.225 45.688ZM619.505 38.776L620.251 41.1622L620.294 41.1486L620.337 41.1335L619.505 38.776ZM612.881 44.248L610.645 43.1299L610.628 43.1649L610.611 43.2003L612.881 44.248ZM611.153 114.232H608.653V116.732H611.153V114.232ZM665.873 109.624L664.358 107.635L664.335 107.653L664.312 107.672L665.873 109.624ZM675.377 94.072L677.877 94.1029L677.877 94.0874V94.072H675.377ZM675.089 117.4L672.589 117.369L672.589 117.385V117.4H675.089ZM675.377 130.072L677.877 130.02L677.876 129.963L677.872 129.906L675.377 130.072ZM675.665 143.896H678.165V143.87L678.165 143.844L675.665 143.896ZM665.873 125.752L664.196 127.606L664.217 127.625L664.239 127.644L665.873 125.752ZM611.153 120.28V117.78H608.653V120.28H611.153ZM612.881 198.328L610.611 199.376L610.611 199.376L612.881 198.328ZM619.217 203.512L619.963 201.126L619.963 201.126L619.217 203.512ZM679.697 195.16L677.877 193.447L677.877 193.447L679.697 195.16ZM694.581 168.088C694.581 168.429 694.489 168.84 694.233 169.223C693.988 169.59 693.688 169.792 693.487 169.892C693.157 170.057 692.977 170.012 693.233 170.012V165.012C692.722 165.012 691.966 165.063 691.251 165.42C690.859 165.616 690.414 165.938 690.073 166.449C689.722 166.976 689.581 167.555 689.581 168.088H694.581ZM693.233 170.012C693.548 170.012 693.616 170.067 693.555 170.036L695.791 165.564C694.962 165.149 694.071 165.012 693.233 165.012V170.012ZM693.883 170.172C693.968 170.2 693.785 170.16 693.553 169.928C693.426 169.801 693.288 169.619 693.185 169.379C693.081 169.136 693.037 168.889 693.037 168.664H698.037C698.037 166.619 696.366 165.729 695.464 165.428L693.883 170.172ZM693.062 168.31C691.316 180.533 690.445 193.323 690.445 206.68H695.445C695.445 193.541 696.302 180.987 698.012 169.018L693.062 168.31ZM690.445 206.68C690.445 207.831 690.159 208.234 690.025 208.368L693.561 211.904C694.963 210.502 695.445 208.601 695.445 206.68H690.445ZM690.025 208.368C690.172 208.222 690.216 208.277 689.891 208.359C689.581 208.436 689.081 208.5 688.337 208.5V213.5C689.322 213.5 690.262 213.42 691.104 213.209C691.93 213.003 692.838 212.626 693.561 211.904L690.025 208.368ZM688.337 208.5H567.665V213.5H688.337V208.5ZM567.665 208.5C568.276 208.5 568.816 208.759 569.181 209.124C569.485 209.428 569.585 209.719 569.605 209.777C569.639 209.88 569.589 209.775 569.589 209.272H564.589C564.589 209.921 564.635 210.68 564.862 211.359C565.066 211.973 565.813 213.5 567.665 213.5V208.5ZM569.589 209.272C569.589 208.769 569.639 208.664 569.605 208.767C569.585 208.825 569.485 209.116 569.181 209.42C568.816 209.785 568.276 210.044 567.665 210.044V205.044C565.813 205.044 565.066 206.571 564.862 207.185C564.635 207.864 564.589 208.623 564.589 209.272H569.589ZM567.665 210.044C574.992 210.044 580.579 209.57 584.211 208.502L582.8 203.706C579.903 204.558 574.931 205.044 567.665 205.044V210.044ZM584.174 208.513C588.179 207.4 591.197 205.159 592.715 201.617L588.119 199.647C587.334 201.481 585.744 202.887 582.836 203.695L584.174 208.513ZM592.683 201.689C594.26 198.309 594.933 193.547 594.933 187.672H589.933C589.933 193.317 589.262 197.195 588.152 199.575L592.683 201.689ZM594.933 187.672V54.328H589.933V187.672H594.933ZM594.933 54.328C594.933 48.4731 594.266 43.7642 592.653 40.538L588.181 42.774C589.256 44.9238 589.933 48.6629 589.933 54.328H594.933ZM592.715 40.6712C591.197 37.1287 588.179 34.8875 584.174 33.7752L582.836 38.5928C585.744 39.4005 587.334 40.8073 588.119 42.6408L592.715 40.6712ZM584.337 33.8265C580.646 32.5238 575.002 31.956 567.665 31.956V36.956C574.921 36.956 579.836 37.5402 582.673 38.5415L584.337 33.8265ZM567.665 31.956C568.276 31.956 568.816 32.2149 569.181 32.5802C569.485 32.8841 569.585 33.175 569.605 33.2334C569.639 33.3363 569.589 33.231 569.589 32.728H564.589C564.589 33.377 564.635 34.1357 564.862 34.8146C565.066 35.4292 565.813 36.956 567.665 36.956V31.956ZM569.589 32.728C569.589 32.225 569.639 32.1197 569.605 32.2226C569.585 32.281 569.485 32.5719 569.181 32.8758C568.816 33.241 568.276 33.5 567.665 33.5V28.5C565.813 28.5 565.066 30.0268 564.862 30.6414C564.635 31.3203 564.589 32.079 564.589 32.728H569.589ZM567.665 33.5H683.441V28.5H567.665V33.5ZM683.441 33.5C683.554 33.5 683.637 33.5071 683.695 33.5154C683.753 33.5236 683.78 33.5323 683.785 33.5337C683.788 33.5349 683.768 33.5286 683.735 33.5082C683.7 33.4873 683.658 33.4567 683.617 33.4158C683.577 33.3748 683.546 33.3336 683.525 33.2987C683.505 33.2648 683.498 33.2451 683.5 33.2486C683.501 33.2528 683.51 33.2804 683.518 33.338C683.526 33.3959 683.533 33.4792 683.533 33.592H688.533C688.533 32.3426 688.219 30.9464 687.153 29.8802C686.087 28.814 684.691 28.5 683.441 28.5V33.5ZM683.534 33.6326L684.11 69.0566L689.109 68.9753L688.533 33.5513L683.534 33.6326ZM684.109 69.016C684.109 68.801 684.157 68.5462 684.283 68.294C684.407 68.0465 684.566 67.881 684.688 67.7838C684.891 67.6207 684.975 67.6573 684.679 67.7165L685.66 72.6194C686.323 72.4867 687.127 72.2353 687.811 71.6882C688.598 71.0584 689.109 70.1203 689.109 69.016H684.109ZM685.169 67.668C684.903 67.668 684.948 67.6222 685.135 67.7159C685.243 67.7699 685.388 67.8657 685.526 68.0211C685.666 68.1788 685.759 68.3527 685.813 68.5134L681.07 70.0946C681.787 72.246 683.865 72.668 685.169 72.668V67.668ZM685.937 69.1627C685.337 58.5588 682.111 50.0379 675.993 43.9202L672.457 47.4558C677.476 52.4741 680.393 59.6972 680.945 69.4453L685.937 69.1627ZM676.023 43.9504C669.912 37.6287 661.832 34.548 652.049 34.548V39.548C660.699 39.548 667.403 42.2273 672.428 47.4256L676.023 43.9504ZM652.049 34.548H634.481V39.548H652.049V34.548ZM634.481 34.548C627.693 34.548 622.351 35.1204 618.673 36.4185L620.337 41.1335C623.187 40.1276 627.83 39.548 634.481 39.548V34.548ZM618.76 36.3898C615.09 37.5364 612.316 39.7879 610.645 43.1299L615.117 45.366C616.134 43.3321 617.776 41.9355 620.251 41.1622L618.76 36.3898ZM610.611 43.2003C609.226 46.2013 608.653 50.487 608.653 55.768H613.653C613.653 50.681 614.232 47.2867 615.151 45.2956L610.611 43.2003ZM608.653 55.768V114.232H613.653V55.768H608.653ZM611.153 116.732H646.289V111.732H611.153V116.732ZM646.289 116.732C655.641 116.732 662.903 115.201 667.435 111.576L664.312 107.672C661.163 110.191 655.369 111.732 646.289 111.732V116.732ZM667.388 111.613C672.28 107.885 674.421 101.788 674.421 94.072H669.421C669.421 100.948 667.53 105.219 664.358 107.635L667.388 111.613ZM674.421 94.072C674.421 94.6824 674.162 95.2225 673.797 95.5878C673.493 95.8916 673.202 95.9922 673.144 96.0117C673.041 96.046 673.146 95.996 673.649 95.996V90.996C673 90.996 672.242 91.042 671.563 91.2683C670.948 91.4732 669.421 92.2194 669.421 94.072H674.421ZM673.649 95.996C674.152 95.996 674.258 96.046 674.155 96.0117C674.096 95.9922 673.805 95.8916 673.501 95.5878C673.136 95.2225 672.877 94.6824 672.877 94.072H677.877C677.877 92.2194 676.35 91.4732 675.736 91.2683C675.057 91.042 674.298 90.996 673.649 90.996V95.996ZM672.877 94.0411L672.589 117.369L677.589 117.431L677.877 94.1029L672.877 94.0411ZM672.589 117.4C672.589 122.983 672.685 127.273 672.883 130.238L677.872 129.906C677.685 127.111 677.589 122.953 677.589 117.4H672.589ZM672.878 130.124L673.166 143.948L678.165 143.844L677.877 130.02L672.878 130.124ZM673.165 143.896C673.165 143.286 673.424 142.746 673.789 142.38C674.093 142.076 674.384 141.976 674.443 141.956C674.546 141.922 674.44 141.972 673.937 141.972V146.972C674.586 146.972 675.345 146.926 676.024 146.7C676.638 146.495 678.165 145.749 678.165 143.896H673.165ZM673.937 141.972C673.434 141.972 673.329 141.922 673.432 141.956C673.49 141.976 673.781 142.076 674.085 142.38C674.45 142.746 674.709 143.286 674.709 143.896H669.709C669.709 145.749 671.236 146.495 671.851 146.7C672.53 146.926 673.288 146.972 673.937 146.972V141.972ZM674.709 143.896C674.709 135.098 672.513 128.183 667.507 123.86L664.239 127.644C667.681 130.617 669.709 135.798 669.709 143.896H674.709ZM667.551 123.898C662.817 119.615 655.214 117.78 645.425 117.78V122.78C654.836 122.78 660.866 124.593 664.196 127.606L667.551 123.898ZM645.425 117.78H611.153V122.78H645.425V117.78ZM608.653 120.28V186.52H613.653V120.28H608.653ZM608.653 186.52C608.653 191.977 609.223 196.367 610.611 199.376L615.151 197.28C614.236 195.297 613.653 191.815 613.653 186.52H608.653ZM610.611 199.376C612.111 202.624 614.851 204.767 618.472 205.898L619.963 201.126C617.439 200.337 615.956 199.024 615.151 197.28L610.611 199.376ZM618.472 205.898C621.923 206.977 627.04 207.452 633.617 207.452V202.452C627.138 202.452 622.655 201.967 619.963 201.126L618.472 205.898ZM633.617 207.452H656.657V202.452H633.617V207.452ZM656.657 207.452C666.541 207.452 674.887 203.919 681.518 196.873L677.877 193.447C672.22 199.457 665.206 202.452 656.657 202.452V207.452ZM681.518 196.873C688.079 189.902 692.368 180.39 694.54 168.539L689.622 167.637C687.571 178.826 683.604 187.362 677.877 193.447L681.518 196.873ZM842.449 187.096L840.526 188.694L840.526 188.694L842.449 187.096ZM795.217 121.432L797.308 120.062L796.361 118.617L794.674 118.992L795.217 121.432ZM766.129 122.296L766.32 119.803L763.629 119.596V122.296H766.129ZM767.857 200.632L765.559 201.617L765.559 201.617L767.857 200.632ZM774.481 206.104L773.775 208.502L773.793 208.508L773.812 208.513L774.481 206.104ZM776.497 210.712L776.635 208.216L776.584 208.213L776.533 208.212L776.497 210.712ZM756.625 210.424L756.661 207.924L756.624 207.924L756.588 207.924L756.625 210.424ZM737.041 210.712L737.004 208.212L736.953 208.213L736.902 208.216L737.041 210.712ZM738.481 206.104L739.15 208.513L739.15 208.513L738.481 206.104ZM745.393 200.632L743.127 199.575L743.111 199.611L743.095 199.647L745.393 200.632ZM745.681 41.656L743.383 42.6408L743.383 42.6408L745.681 41.656ZM738.769 36.184L737.937 38.5415L738.017 38.5699L738.1 38.5928L738.769 36.184ZM722.929 31L722.98 28.5005L722.954 28.5H722.929V31ZM737.041 31.288L737.16 28.7908L737.126 28.7892L737.092 28.7885L737.041 31.288ZM768.433 31.576L768.301 29.0794L768.301 29.0794L768.433 31.576ZM777.649 31L777.84 33.4927L777.851 33.4918L777.649 31ZM832.081 40.504L830.476 42.4209L830.476 42.4209L832.081 40.504ZM835.249 96.376L833.227 94.9055L833.221 94.914L835.249 96.376ZM811.345 115.96L810.262 113.707L807.619 114.977L809.291 117.386L811.345 115.96ZM851.953 170.68L850.025 172.272L850.038 172.287L850.051 172.302L851.953 170.68ZM881.329 198.904L879.92 200.97L879.931 200.977L879.942 200.984L881.329 198.904ZM766.129 115.384H763.629V117.516L765.734 117.853L766.129 115.384ZM815.089 106.744L813.321 104.976L813.308 104.989L813.295 105.003L815.089 106.744ZM814.801 44.248L813.033 46.0158L813.046 46.0286L813.059 46.0412L814.801 44.248ZM906.673 210.044C906.062 210.044 905.522 209.785 905.157 209.42C904.853 209.116 904.753 208.825 904.733 208.767C904.699 208.664 904.749 208.769 904.749 209.272H909.749C909.749 208.623 909.703 207.864 909.476 207.185C909.272 206.571 908.525 205.044 906.673 205.044V210.044ZM904.749 209.272C904.749 209.775 904.699 209.88 904.733 209.777C904.753 209.719 904.853 209.428 905.157 209.124C905.522 208.759 906.062 208.5 906.673 208.5V213.5C908.525 213.5 909.272 211.973 909.476 211.359C909.703 210.68 909.749 209.921 909.749 209.272H904.749ZM906.673 208.5H869.521V213.5H906.673V208.5ZM869.521 208.5C868.96 208.5 867.949 208.246 866.377 207.34C864.847 206.458 862.995 205.081 860.807 203.15C856.436 199.29 850.963 193.427 844.371 185.498L840.526 188.694C847.183 196.701 852.845 202.79 857.498 206.898C859.823 208.951 861.954 210.562 863.88 211.672C865.765 212.758 867.682 213.5 869.521 213.5V208.5ZM844.371 185.498C831.209 169.665 815.523 147.864 797.308 120.062L793.126 122.802C811.39 150.68 827.193 172.655 840.526 188.694L844.371 185.498ZM794.674 118.992C789.677 120.102 784.483 120.66 779.089 120.66V125.66C784.83 125.66 790.389 125.066 795.759 123.872L794.674 118.992ZM779.089 120.66C778.06 120.66 773.873 120.384 766.32 119.803L765.937 124.789C773.361 125.36 777.813 125.66 779.089 125.66V120.66ZM763.629 122.296V187.672H768.629V122.296H763.629ZM763.629 187.672C763.629 193.684 764.196 198.436 765.559 201.617L770.155 199.647C769.214 197.452 768.629 193.564 768.629 187.672H763.629ZM765.559 201.617C767.054 205.106 769.927 207.37 773.775 208.502L775.186 203.706C772.507 202.918 770.963 201.534 770.155 199.647L765.559 201.617ZM773.812 208.513C777.61 209.568 783.269 210.044 790.609 210.044V205.044C783.356 205.044 778.263 204.56 775.15 203.695L773.812 208.513ZM790.609 210.044C790.315 210.044 789.947 209.963 789.6 209.732C789.269 209.511 789.097 209.247 789.021 209.094C788.949 208.951 788.944 208.875 788.953 208.927C788.96 208.973 788.973 209.081 788.973 209.272H793.973C793.973 208.568 793.898 207.668 793.493 206.858C793.273 206.417 792.921 205.937 792.373 205.572C791.811 205.197 791.19 205.044 790.609 205.044V210.044ZM788.973 209.272C788.973 209.463 788.96 209.571 788.953 209.617C788.944 209.669 788.949 209.593 789.021 209.45C789.097 209.297 789.269 209.033 789.6 208.812C789.947 208.581 790.315 208.5 790.609 208.5V213.5C791.19 213.5 791.811 213.347 792.373 212.972C792.921 212.607 793.273 212.127 793.493 211.686C793.898 210.876 793.973 209.976 793.973 209.272H788.973ZM790.609 208.5C784.675 208.5 780.024 208.404 776.635 208.216L776.358 213.208C779.881 213.404 784.638 213.5 790.609 213.5V208.5ZM776.533 208.212L756.661 207.924L756.589 212.924L776.461 213.212L776.533 208.212ZM756.588 207.924L737.004 208.212L737.078 213.212L756.662 212.924L756.588 207.924ZM736.902 208.216C733.515 208.404 728.674 208.5 722.353 208.5V213.5C728.704 213.5 733.654 213.404 737.179 213.208L736.902 208.216ZM722.353 208.5C722.963 208.5 723.503 208.759 723.869 209.124C724.172 209.428 724.273 209.719 724.292 209.777C724.327 209.88 724.277 209.775 724.277 209.272H719.277C719.277 209.921 719.323 210.68 719.549 211.359C719.754 211.973 720.5 213.5 722.353 213.5V208.5ZM724.277 209.272C724.277 208.769 724.327 208.664 724.292 208.767C724.273 208.825 724.172 209.116 723.869 209.42C723.503 209.785 722.963 210.044 722.353 210.044V205.044C720.5 205.044 719.754 206.571 719.549 207.185C719.323 207.864 719.277 208.623 719.277 209.272H724.277ZM722.353 210.044C729.692 210.044 735.351 209.568 739.15 208.513L737.812 203.695C734.698 204.56 729.605 205.044 722.353 205.044V210.044ZM739.15 208.513C743.154 207.4 746.172 205.159 747.691 201.617L743.095 199.647C742.309 201.481 740.719 202.887 737.812 203.695L739.15 208.513ZM747.658 201.689C749.236 198.309 749.909 193.547 749.909 187.672H744.909C744.909 193.317 744.238 197.195 743.127 199.575L747.658 201.689ZM749.909 187.672V54.328H744.909V187.672H749.909ZM749.909 54.328C749.909 48.4941 749.339 43.8454 747.979 40.6712L743.383 42.6408C744.327 44.8426 744.909 48.6419 744.909 54.328H749.909ZM747.979 40.6712C746.46 37.1287 743.442 34.8875 739.438 33.7752L738.1 38.5928C741.007 39.4005 742.597 40.8073 743.383 42.6408L747.979 40.6712ZM739.601 33.8265C735.91 32.5238 730.265 31.956 722.929 31.956V36.956C730.184 36.956 735.1 37.5402 737.937 38.5415L739.601 33.8265ZM722.929 31.956C723.222 31.956 723.591 32.0365 723.937 32.2679C724.269 32.4888 724.441 32.7534 724.517 32.906C724.588 33.0487 724.593 33.1253 724.585 33.073C724.577 33.0275 724.565 32.9185 724.565 32.728H719.565C719.565 33.4317 719.639 34.3316 720.045 35.142C720.265 35.5826 720.617 36.0632 721.164 36.4281C721.727 36.8034 722.347 36.956 722.929 36.956V31.956ZM724.565 32.728C724.565 32.5374 724.577 32.4285 724.585 32.383C724.593 32.3307 724.588 32.4072 724.517 32.55C724.441 32.7026 724.269 32.9672 723.937 33.1881C723.591 33.4195 723.222 33.5 722.929 33.5V28.5C722.347 28.5 721.727 28.6525 721.164 29.0279C720.617 29.3928 720.265 29.8734 720.045 30.314C719.639 31.1244 719.565 32.0243 719.565 32.728H724.565ZM722.878 33.4995L736.99 33.7875L737.092 28.7885L722.98 28.5005L722.878 33.4995ZM736.922 33.7852C745.005 34.1701 751.577 34.364 756.625 34.364V29.364C751.689 29.364 745.205 29.1739 737.16 28.7908L736.922 33.7852ZM756.625 34.364C760.886 34.364 764.866 34.2672 768.564 34.0725L768.301 29.0794C764.703 29.2688 760.812 29.364 756.625 29.364V34.364ZM768.564 34.0725C772.224 33.8799 775.318 33.6867 777.84 33.4926L777.457 28.5074C774.988 28.6973 771.937 28.8881 768.301 29.0794L768.564 34.0725ZM777.851 33.4918C784.903 32.92 791.266 32.636 796.945 32.636V27.636C791.104 27.636 784.603 27.9279 777.447 28.5082L777.851 33.4918ZM796.945 32.636C811.763 32.636 822.823 36.0138 830.476 42.4209L833.686 38.5871C824.827 31.1702 812.463 27.636 796.945 27.636V32.636ZM830.476 42.4209C838.121 48.8213 841.965 57.313 841.965 68.152H846.965C846.965 55.951 842.553 46.0107 833.686 38.5871L830.476 42.4209ZM841.965 68.152C841.965 77.9874 839.063 86.8814 833.227 94.9056L837.271 97.8464C843.723 88.9746 846.965 79.0526 846.965 68.152H841.965ZM833.221 94.914C827.534 102.802 819.904 109.071 810.262 113.707L812.428 118.213C822.754 113.249 831.06 106.462 837.277 97.838L833.221 94.914ZM809.291 117.386C825.437 140.644 839.018 158.947 850.025 172.272L853.88 169.088C843 155.917 829.508 137.74 813.398 114.534L809.291 117.386ZM850.051 172.302C861.248 185.43 871.207 195.028 879.92 200.97L882.737 196.838C874.555 191.26 864.93 182.042 853.855 169.058L850.051 172.302ZM879.942 200.984C888.887 206.947 897.81 210.044 906.673 210.044V205.044C899.024 205.044 891.051 202.381 882.716 196.824L879.942 200.984ZM765.734 117.853C770.7 118.647 776.502 119.036 783.121 119.036V114.036C776.683 114.036 771.158 113.657 766.524 112.915L765.734 117.853ZM783.121 119.036C798.356 119.036 809.848 115.733 816.883 108.485L813.295 105.003C807.657 110.811 797.838 114.036 783.121 114.036V119.036ZM816.857 108.512C824.037 101.332 827.381 90.4848 827.381 76.504H822.381C822.381 89.7872 819.197 99.1003 813.321 104.976L816.857 108.512ZM827.381 76.504C827.381 61.2434 823.97 49.6698 816.543 42.4548L813.059 46.0412C819.072 51.8821 822.381 61.8126 822.381 76.504H827.381ZM816.569 42.4802C809.419 35.3308 799.083 31.956 786.001 31.956V36.956C798.262 36.956 807.126 40.1092 813.033 46.0158L816.569 42.4802ZM786.001 31.956C778.382 31.956 772.355 33.2892 768.743 36.6604L772.155 40.3156C774.303 38.3108 778.643 36.956 786.001 36.956V31.956ZM768.743 36.6604C766.839 38.4377 765.581 40.9683 764.791 43.9718C763.998 46.9866 763.629 50.65 763.629 54.904H768.629C768.629 50.902 768.98 47.7014 769.626 45.2442C770.276 42.7757 771.179 41.2263 772.155 40.3156L768.743 36.6604ZM763.629 54.904V115.384H768.629V54.904H763.629Z" fill="#F10C08"/>
</g>
<defs>
<filter id="filter0_dd" x="0.347992" y="0.147949" width="929.401" height="233.352" filterUnits="userSpaceOnUse" color-interpolation-filters="sRGB">
<feFlood flood-opacity="0" result="BackgroundImageFix"/>
<feColorMatrix in="SourceAlpha" type="matrix" values="0 0 0 0 0 0 0 0 0 0 0 0 0 0 0 0 0 0 127 0"/>
<feOffset/>
<feGaussianBlur stdDeviation="10"/>
<feColorMatrix type="matrix" values="0 0 0 0 0.945098 0 0 0 0 0.0470588 0 0 0 0 0.0313726 0 0 0 1 0"/>
<feBlend mode="normal" in2="BackgroundImageFix" result="effect1_dropShadow"/>
<feColorMatrix in="SourceAlpha" type="matrix" values="0 0 0 0 0 0 0 0 0 0 0 0 0 0 0 0 0 0 127 0"/>
<feOffset/>
<feGaussianBlur stdDeviation="5"/>
<feColorMatrix type="matrix" values="0 0 0 0 0.709804 0 0 0 0 0.00392157 0 0 0 0 0.00784319 0 0 0 0.65 0"/>
<feBlend mode="normal" in2="effect1_dropShadow" result="effect2_dropShadow"/>
<feBlend mode="normal" in="SourceGraphic" in2="effect2_dropShadow" result="shape"/>
</filter>
</defs>
</svg>
