<svg width="987" height="233" viewBox="0 0 987 233" fill="none" xmlns="http://www.w3.org/2000/svg">
<g filter="url(#filter0_dd)">
<path d="M202.824 205.712L202.963 203.216L202.911 203.213L202.86 203.212L202.824 205.712ZM182.952 205.424L182.988 202.924L182.953 202.924L182.918 202.924L182.952 205.424ZM161.64 205.712L161.606 203.212L161.55 203.213L161.493 203.216L161.64 205.712ZM171.432 195.632L169.167 194.575L169.15 194.611L169.134 194.647L171.432 195.632ZM173.448 115.28H175.948V112.78H173.448V115.28ZM62.856 115.28V112.78H60.356V115.28H62.856ZM64.584 195.632L62.2628 196.56L62.3014 196.657L62.3479 196.75L64.584 195.632ZM74.088 205.712L74.2267 203.216L74.1747 203.213L74.1227 203.212L74.088 205.712ZM53.352 205.424L53.3867 202.924L53.3512 202.924L53.3158 202.924L53.352 205.424ZM33.48 205.712L33.4438 203.212L33.3925 203.213L33.3413 203.216L33.48 205.712ZM35.208 201.104L34.5718 198.686L34.5553 198.691L34.5389 198.695L35.208 201.104ZM42.408 195.632L40.1425 194.575L40.1258 194.611L40.1101 194.647L42.408 195.632ZM42.408 36.656L40.1101 37.6408L40.1391 37.7083L40.1719 37.774L42.408 36.656ZM35.496 31.184L34.7054 33.5557L34.7657 33.5758L34.8269 33.5928L35.496 31.184ZM19.368 26L19.417 23.5005L19.3925 23.5H19.368V26ZM34.056 26.288L34.1749 23.7908L34.14 23.7892L34.105 23.7885L34.056 26.288ZM74.376 26.288L74.3239 23.7885L74.2932 23.7892L74.2625 23.7906L74.376 26.288ZM88.2 26V23.5H88.174L88.1479 23.5005L88.2 26ZM71.784 31.184L71.0312 28.8L71.0123 28.806L70.9934 28.8123L71.784 31.184ZM64.584 37.232L62.3185 36.1748L62.3018 36.2107L62.2861 36.2472L64.584 37.232ZM62.856 109.232H60.356V111.732H62.856V109.232ZM173.448 109.232V111.732H175.948V109.232H173.448ZM171.432 37.232L169.111 38.1605L169.149 38.257L169.196 38.35L171.432 37.232ZM164.52 31.184L165.311 28.8123L165.311 28.8123L164.52 31.184ZM148.104 26L148.157 23.5006L148.131 23.5H148.104V26ZM161.64 26.288L161.754 23.7906L161.723 23.7892L161.693 23.7886L161.64 26.288ZM202.824 26.288L202.773 23.7885L202.739 23.7892L202.705 23.7908L202.824 26.288ZM216.936 26V23.5H216.911L216.885 23.5005L216.936 26ZM200.808 31.184L201.477 33.5928L201.538 33.5758L201.599 33.5557L200.808 31.184ZM193.608 36.656L191.372 35.538L191.339 35.6037L191.31 35.6712L193.608 36.656ZM193.608 195.632L191.287 196.56L191.325 196.657L191.372 196.75L193.608 195.632ZM216.936 205.044C216.643 205.044 216.274 204.963 215.927 204.732C215.596 204.511 215.424 204.247 215.348 204.094C215.277 203.951 215.271 203.875 215.28 203.927C215.288 203.973 215.3 204.081 215.3 204.272H220.3C220.3 203.568 220.225 202.668 219.82 201.858C219.6 201.417 219.248 200.937 218.701 200.572C218.138 200.197 217.517 200.044 216.936 200.044V205.044ZM215.3 204.272C215.3 204.463 215.288 204.571 215.28 204.617C215.271 204.669 215.277 204.593 215.348 204.45C215.424 204.297 215.596 204.033 215.927 203.812C216.274 203.581 216.643 203.5 216.936 203.5V208.5C217.517 208.5 218.138 208.347 218.701 207.972C219.248 207.607 219.6 207.127 219.82 206.686C220.225 205.876 220.3 204.976 220.3 204.272H215.3ZM216.936 203.5C211.003 203.5 206.351 203.404 202.963 203.216L202.685 208.208C206.209 208.404 210.965 208.5 216.936 208.5V203.5ZM202.86 203.212L182.988 202.924L182.916 207.924L202.788 208.212L202.86 203.212ZM182.918 202.924L161.606 203.212L161.674 208.212L182.986 207.924L182.918 202.924ZM161.493 203.216C158.301 203.404 153.846 203.5 148.104 203.5V208.5C153.882 208.5 158.451 208.404 161.787 208.208L161.493 203.216ZM148.104 203.5C148.397 203.5 148.766 203.581 149.113 203.812C149.444 204.033 149.616 204.297 149.692 204.45C149.763 204.593 149.769 204.669 149.76 204.617C149.752 204.571 149.74 204.463 149.74 204.272H144.74C144.74 204.976 144.815 205.876 145.22 206.686C145.44 207.127 145.792 207.607 146.339 207.972C146.902 208.347 147.523 208.5 148.104 208.5V203.5ZM149.74 204.272C149.74 204.081 149.752 203.973 149.76 203.927C149.769 203.875 149.763 203.951 149.692 204.094C149.616 204.247 149.444 204.511 149.113 204.732C148.766 204.963 148.397 205.044 148.104 205.044V200.044C147.523 200.044 146.902 200.197 146.339 200.572C145.792 200.937 145.44 201.417 145.22 201.858C144.815 202.668 144.74 203.568 144.74 204.272H149.74ZM148.104 205.044C155.628 205.044 161.387 204.569 165.189 203.513L163.851 198.695C160.741 199.559 155.556 200.044 148.104 200.044V205.044ZM165.189 203.513C169.193 202.4 172.212 200.159 173.73 196.617L169.134 194.647C168.348 196.481 166.759 197.887 163.851 198.695L165.189 203.513ZM173.697 196.689C175.275 193.309 175.948 188.547 175.948 182.672H170.948C170.948 188.317 170.277 192.195 169.167 194.575L173.697 196.689ZM175.948 182.672V115.28H170.948V182.672H175.948ZM173.448 112.78H62.856V117.78H173.448V112.78ZM60.356 115.28V182.672H65.356V115.28H60.356ZM60.356 182.672C60.356 188.525 60.9309 193.231 62.2628 196.56L66.9052 194.704C65.9331 192.273 65.356 188.339 65.356 182.672H60.356ZM62.3479 196.75C64.0693 200.193 67.1212 202.403 71.1149 203.513L72.4531 198.695C69.5348 197.885 67.7867 196.447 66.8201 194.514L62.3479 196.75ZM71.1149 203.513C74.9169 204.569 80.6756 205.044 88.2 205.044V200.044C80.7484 200.044 75.5631 199.559 72.4531 198.695L71.1149 203.513ZM88.2 205.044C87.5896 205.044 87.0495 204.785 86.6842 204.42C86.3804 204.116 86.2798 203.825 86.2603 203.767C86.226 203.664 86.276 203.769 86.276 204.272H91.276C91.276 203.623 91.23 202.864 91.0037 202.185C90.7988 201.571 90.0526 200.044 88.2 200.044V205.044ZM86.276 204.272C86.276 204.775 86.226 204.88 86.2603 204.777C86.2798 204.719 86.3804 204.428 86.6842 204.124C87.0495 203.759 87.5896 203.5 88.2 203.5V208.5C90.0526 208.5 90.7988 206.973 91.0037 206.359C91.23 205.68 91.276 204.921 91.276 204.272H86.276ZM88.2 203.5C82.2665 203.5 77.6153 203.404 74.2267 203.216L73.9493 208.208C77.4727 208.404 82.2295 208.5 88.2 208.5V203.5ZM74.1227 203.212L53.3867 202.924L53.3173 207.924L74.0533 208.212L74.1227 203.212ZM53.3158 202.924L33.4438 203.212L33.5162 208.212L53.3882 207.924L53.3158 202.924ZM33.3413 203.216C29.9537 203.404 25.2072 203.5 19.08 203.5V208.5C25.2408 208.5 30.0943 208.404 33.6187 208.208L33.3413 203.216ZM19.08 203.5C19.6904 203.5 20.2305 203.759 20.5958 204.124C20.8996 204.428 21.0002 204.719 21.0197 204.777C21.054 204.88 21.004 204.775 21.004 204.272H16.004C16.004 204.921 16.05 205.68 16.2763 206.359C16.4812 206.973 17.2274 208.5 19.08 208.5V203.5ZM21.004 204.272C21.004 203.769 21.054 203.664 21.0197 203.767C21.0002 203.825 20.8996 204.116 20.5958 204.42C20.2305 204.785 19.6904 205.044 19.08 205.044V200.044C17.2274 200.044 16.4812 201.571 16.2763 202.185C16.05 202.864 16.004 203.623 16.004 204.272H21.004ZM19.08 205.044C26.4194 205.044 32.0784 204.568 35.8771 203.513L34.5389 198.695C31.4256 199.56 26.3326 200.044 19.08 200.044V205.044ZM35.8442 203.522C40.002 202.428 43.1659 200.21 44.7059 196.617L40.1101 194.647C39.3461 196.43 37.71 197.86 34.5718 198.686L35.8442 203.522ZM44.6735 196.689C46.251 193.309 46.924 188.547 46.924 182.672H41.924C41.924 188.317 41.253 192.195 40.1425 194.575L44.6735 196.689ZM46.924 182.672V49.328H41.924V182.672H46.924ZM46.924 49.328C46.924 43.4731 46.2572 38.7642 44.6441 35.538L40.1719 37.774C41.2468 39.9238 41.924 43.6629 41.924 49.328H46.924ZM44.7059 35.6712C43.1877 32.1287 40.1694 29.8875 36.1651 28.7752L34.8269 33.5928C37.7346 34.4005 39.3243 35.8073 40.1101 37.6408L44.7059 35.6712ZM36.2866 28.8123C32.4312 27.5272 26.7195 26.956 19.368 26.956V31.956C26.6085 31.956 31.6488 32.5368 34.7054 33.5557L36.2866 28.8123ZM19.368 26.956C19.9784 26.956 20.5185 27.2149 20.8838 27.5802C21.1876 27.8841 21.2882 28.175 21.3077 28.2334C21.342 28.3363 21.292 28.231 21.292 27.728H16.292C16.292 28.377 16.338 29.1357 16.5643 29.8146C16.7692 30.4292 17.5154 31.956 19.368 31.956V26.956ZM21.292 27.728C21.292 27.225 21.342 27.1197 21.3077 27.2226C21.2882 27.281 21.1876 27.5719 20.8838 27.8758C20.5185 28.241 19.9784 28.5 19.368 28.5V23.5C17.5154 23.5 16.7692 25.0268 16.5643 25.6414C16.338 26.3203 16.292 27.079 16.292 27.728H21.292ZM19.319 28.4995L34.007 28.7875L34.105 23.7885L19.417 23.5005L19.319 28.4995ZM33.9371 28.7852C42.018 29.17 48.4947 29.364 53.352 29.364V24.364C48.6093 24.364 42.222 24.174 34.1749 23.7908L33.9371 28.7852ZM53.352 29.364C58.9719 29.364 66.0209 29.1704 74.4895 28.7854L74.2625 23.7906C65.8351 24.1736 58.8682 24.364 53.352 24.364V29.364ZM74.4281 28.7875L88.2521 28.4995L88.1479 23.5005L74.3239 23.7885L74.4281 28.7875ZM88.2 28.5C87.5896 28.5 87.0495 28.241 86.6842 27.8758C86.3804 27.5719 86.2798 27.281 86.2603 27.2226C86.226 27.1197 86.276 27.225 86.276 27.728H91.276C91.276 27.079 91.23 26.3203 91.0037 25.6414C90.7988 25.0268 90.0526 23.5 88.2 23.5V28.5ZM86.276 27.728C86.276 28.231 86.226 28.3363 86.2603 28.2334C86.2798 28.175 86.3804 27.8841 86.6842 27.5802C87.0495 27.2149 87.5896 26.956 88.2 26.956V31.956C90.0526 31.956 90.7988 30.4292 91.0037 29.8146C91.23 29.1357 91.276 28.377 91.276 27.728H86.276ZM88.2 26.956C80.8359 26.956 75.0531 27.5299 71.0312 28.8L72.5368 33.5679C75.8109 32.534 80.9721 31.956 88.2 31.956V26.956ZM70.9934 28.8123C66.9905 30.1466 63.9963 32.5797 62.3185 36.1748L66.8495 38.2892C67.8597 36.1243 69.6655 34.5254 72.5746 33.5557L70.9934 28.8123ZM62.2861 36.2472C60.9258 39.4214 60.356 44.0701 60.356 49.904H65.356C65.356 44.2179 65.9382 40.4186 66.8819 38.2168L62.2861 36.2472ZM60.356 49.904V109.232H65.356V49.904H60.356ZM62.856 111.732H173.448V106.732H62.856V111.732ZM175.948 109.232V49.904H170.948V109.232H175.948ZM175.948 49.904C175.948 44.049 175.281 39.3402 173.668 36.114L169.196 38.35C170.271 40.4998 170.948 44.2389 170.948 49.904H175.948ZM173.753 36.3035C172.279 32.619 169.329 30.1519 165.311 28.8123L163.729 33.5557C166.623 34.5201 168.281 36.085 169.111 38.1605L173.753 36.3035ZM165.311 28.8123C161.451 27.5259 155.639 26.956 148.104 26.956V31.956C155.545 31.956 160.677 32.5381 163.729 33.5557L165.311 28.8123ZM148.104 26.956C148.397 26.956 148.766 27.0365 149.113 27.2679C149.444 27.4888 149.616 27.7534 149.692 27.906C149.763 28.0487 149.769 28.1253 149.76 28.073C149.752 28.0275 149.74 27.9185 149.74 27.728H144.74C144.74 28.4317 144.815 29.3316 145.22 30.142C145.44 30.5826 145.792 31.0632 146.339 31.4281C146.902 31.8034 147.523 31.956 148.104 31.956V26.956ZM149.74 27.728C149.74 27.5374 149.752 27.4285 149.76 27.383C149.769 27.3307 149.763 27.4072 149.692 27.55C149.616 27.7026 149.444 27.9672 149.113 28.1881C148.766 28.4195 148.397 28.5 148.104 28.5V23.5C147.523 23.5 146.902 23.6525 146.339 24.0279C145.792 24.3928 145.44 24.8734 145.22 25.314C144.815 26.1244 144.74 27.0243 144.74 27.728H149.74ZM148.051 28.4994L161.587 28.7874L161.693 23.7886L148.157 23.5006L148.051 28.4994ZM161.526 28.7854C169.997 29.1704 177.141 29.364 182.952 29.364V24.364C177.243 24.364 170.179 24.1736 161.754 23.7906L161.526 28.7854ZM182.952 29.364C188.191 29.364 194.858 29.1701 202.943 28.7852L202.705 23.7908C194.662 24.1738 188.081 24.364 182.952 24.364V29.364ZM202.875 28.7875L216.987 28.4995L216.885 23.5005L202.773 23.7885L202.875 28.7875ZM216.936 28.5C216.643 28.5 216.274 28.4194 215.927 28.1881C215.596 27.9672 215.424 27.7026 215.348 27.55C215.277 27.4072 215.271 27.3307 215.28 27.383C215.288 27.4285 215.3 27.5374 215.3 27.728H220.3C220.3 27.0243 220.225 26.1244 219.82 25.314C219.6 24.8734 219.248 24.3928 218.701 24.0279C218.138 23.6526 217.517 23.5 216.936 23.5V28.5ZM215.3 27.728C215.3 27.9185 215.288 28.0275 215.28 28.073C215.271 28.1253 215.277 28.0488 215.348 27.906C215.424 27.7534 215.596 27.4888 215.927 27.2679C216.274 27.0365 216.643 26.956 216.936 26.956V31.956C217.517 31.956 218.138 31.8034 218.701 31.4281C219.248 31.0632 219.6 30.5826 219.82 30.142C220.225 29.3316 220.3 28.4317 220.3 27.728H215.3ZM216.936 26.956C209.585 26.956 203.873 27.5272 200.017 28.8123L201.599 33.5557C204.655 32.5368 209.695 31.956 216.936 31.956V26.956ZM200.139 28.7752C196.145 29.8845 193.093 32.0953 191.372 35.538L195.844 37.774C196.811 35.8407 198.559 34.4034 201.477 33.5928L200.139 28.7752ZM191.31 35.6712C189.95 38.8454 189.38 43.4941 189.38 49.328H194.38C194.38 43.6419 194.962 39.8426 195.906 37.6408L191.31 35.6712ZM189.38 49.328V182.672H194.38V49.328H189.38ZM189.38 182.672C189.38 188.525 189.955 193.231 191.287 196.56L195.929 194.704C194.957 192.273 194.38 188.339 194.38 182.672H189.38ZM191.372 196.75C193.093 200.193 196.145 202.403 200.139 203.513L201.477 198.695C198.559 197.885 196.811 196.447 195.844 194.514L191.372 196.75ZM200.139 203.513C203.938 204.568 209.597 205.044 216.936 205.044V200.044C209.683 200.044 204.59 199.56 201.477 198.695L200.139 203.513ZM285.131 197.072L283.828 199.205L283.845 199.216L283.862 199.226L285.131 197.072ZM252.875 163.088L250.657 164.241L250.666 164.259L250.676 164.277L252.875 163.088ZM256.619 65.456L258.655 66.9064L258.66 66.8999L258.665 66.8934L256.619 65.456ZM294.923 33.488L293.895 31.2092L293.885 31.214L294.923 33.488ZM391.115 35.792L389.79 37.912L389.801 37.9186L389.812 37.9252L391.115 35.792ZM422.795 69.488L420.578 70.6423L420.584 70.6542L420.59 70.666L422.795 69.488ZM383.051 196.784L381.858 194.587L381.846 194.593L383.051 196.784ZM378.155 193.904L376.869 191.76L376.86 191.765L376.852 191.771L378.155 193.904ZM402.923 165.968L400.687 164.85L400.68 164.864L400.673 164.878L402.923 165.968ZM402.059 74.096L399.805 75.1768L399.805 75.1768L402.059 74.096ZM373.547 41.264L372.184 43.3593L372.191 43.3642L372.199 43.3691L373.547 41.264ZM281.387 49.904L279.504 48.2596L279.504 48.2596L281.387 49.904ZM273.611 155.6L271.33 156.623L271.335 156.635L273.611 155.6ZM301.835 190.736L300.382 192.77L300.393 192.778L300.404 192.786L301.835 190.736ZM332.939 206.956C315.485 206.956 299.995 202.926 286.4 194.918L283.862 199.226C298.3 207.73 314.682 211.956 332.939 211.956V206.956ZM286.435 194.939C272.986 186.72 262.544 175.718 255.075 161.899L250.676 164.277C258.567 178.874 269.628 190.528 283.828 199.205L286.435 194.939ZM255.093 161.935C247.798 147.906 244.143 132.655 244.143 116.144H239.143C239.143 133.425 242.976 149.47 250.657 164.241L255.093 161.935ZM244.143 116.144C244.143 96.8076 249.017 80.4379 258.655 66.9064L254.583 64.0055C244.254 78.5061 239.143 95.9284 239.143 116.144H244.143ZM258.665 66.8934C268.398 53.0427 280.821 42.6785 295.962 35.762L293.885 31.214C277.922 38.5055 264.809 49.4533 254.574 64.0186L258.665 66.8934ZM295.951 35.7668C311.392 28.7999 327.074 25.332 343.019 25.332V20.332C326.324 20.332 309.943 23.9681 293.895 31.2092L295.951 35.7668ZM343.019 25.332C360.848 25.332 376.41 29.5491 389.79 37.912L392.44 33.672C378.173 24.7549 361.67 20.332 343.019 20.332V25.332ZM389.812 37.9252C403.258 46.1424 413.497 57.0402 420.578 70.6423L425.013 68.3337C417.501 53.9037 406.621 42.3376 392.419 33.6588L389.812 37.9252ZM420.59 70.666C427.886 84.3231 431.527 98.7989 431.527 114.128H436.527C436.527 97.9691 432.68 82.6849 425 68.31L420.59 70.666ZM431.527 114.128C431.527 131.134 427.05 146.702 418.09 160.889L422.317 163.559C431.789 148.562 436.527 132.066 436.527 114.128H431.527ZM418.09 160.889C409.108 175.11 397.045 186.338 381.858 194.587L384.245 198.981C400.162 190.334 412.867 178.522 422.317 163.559L418.09 160.889ZM381.846 194.593C366.867 202.832 350.579 206.956 332.939 206.956V211.956C351.396 211.956 368.516 207.632 384.256 198.975L381.846 194.593ZM343.019 205.908C356.5 205.908 368.669 202.631 379.459 196.037L376.852 191.771C366.905 197.849 355.651 200.908 343.019 200.908V205.908ZM379.441 196.048C390.463 189.435 399.033 179.734 405.173 167.058L400.673 164.878C394.909 176.778 386.967 185.701 376.869 191.76L379.441 196.048ZM405.159 167.086C411.512 154.38 414.639 139.389 414.639 122.192H409.639C409.639 138.787 406.622 152.98 400.687 164.85L405.159 167.086ZM414.639 122.192C414.639 103.83 411.219 87.4188 404.314 73.0152L399.805 75.1768C406.339 88.8052 409.639 104.458 409.639 122.192H414.639ZM404.314 73.0152C397.406 58.6087 387.601 47.298 374.896 39.1589L372.199 43.3691C384.07 50.974 393.272 61.5513 399.805 75.1768L404.314 73.0152ZM374.911 39.1686C362.358 30.9991 347.662 26.956 330.923 26.956V31.956C346.824 31.956 360.545 35.7849 372.184 43.3593L374.911 39.1686ZM330.923 26.956C309.215 26.956 291.964 33.9912 279.504 48.2596L283.27 51.5484C294.619 38.5528 310.392 31.956 330.923 31.956V26.956ZM279.504 48.2596C267.091 62.4747 261.031 81.8454 261.031 106.064H266.031C266.031 82.6666 271.875 64.5973 283.27 51.5484L279.504 48.2596ZM261.031 106.064C261.031 124.429 264.452 141.295 271.33 156.623L275.892 154.577C269.33 139.953 266.031 123.795 266.031 106.064H261.031ZM271.335 156.635C278.22 171.78 287.896 183.852 300.382 192.77L303.288 188.702C291.582 180.34 282.443 168.988 275.887 154.565L271.335 156.635ZM300.404 192.786C312.938 201.539 327.17 205.908 343.019 205.908V200.908C328.149 200.908 314.925 196.829 303.267 188.686L300.404 192.786ZM587.711 26L587.769 23.5007L587.74 23.5H587.711V26ZM600.095 26.288L600.234 23.7918L600.194 23.7896L600.153 23.7887L600.095 26.288ZM630.623 26.288L630.564 23.7887L630.515 23.7899L630.467 23.7929L630.623 26.288ZM642.719 26V23.5H642.69L642.66 23.5007L642.719 26ZM601.247 191.312L603.015 193.08L603.022 193.073L603.029 193.066L601.247 191.312ZM514.271 201.392L513.105 203.603L513.113 203.608L513.122 203.612L514.271 201.392ZM489.503 177.776L487.318 178.99L487.331 179.014L487.345 179.038L489.503 177.776ZM479.135 36.656L476.837 37.6408L476.837 37.6408L479.135 36.656ZM472.223 31.184L471.391 33.5415L471.472 33.5699L471.554 33.5928L472.223 31.184ZM456.383 26L456.434 23.5005L456.409 23.5H456.383V26ZM470.495 26.288L470.614 23.7908L470.58 23.7892L470.546 23.7885L470.495 26.288ZM510.239 26.288L510.187 23.7885L510.154 23.7892L510.12 23.7908L510.239 26.288ZM524.063 26V23.5H524.037L524.011 23.5005L524.063 26ZM508.223 31.184L507.433 28.8123L507.433 28.8123L508.223 31.184ZM501.311 37.232L503.609 38.2168L503.621 38.1888L503.632 38.1605L501.311 37.232ZM514.847 183.248L512.934 184.857L512.948 184.874L512.962 184.89L514.847 183.248ZM598.367 184.976L600.232 186.641L600.239 186.633L600.247 186.625L598.367 184.976ZM615.267 57.68C615.267 47.9551 613.115 40.1944 608.373 34.8523C603.58 29.4534 596.531 26.956 587.711 26.956V31.956C595.596 31.956 601.075 34.1626 604.634 38.1717C608.243 42.2375 610.267 48.5889 610.267 57.68H615.267ZM587.711 26.956C588.005 26.956 588.373 27.0365 588.72 27.2679C589.051 27.4888 589.223 27.7534 589.299 27.906C589.371 28.0487 589.376 28.1253 589.367 28.073C589.36 28.0275 589.347 27.9185 589.347 27.728H584.347C584.347 28.4317 584.422 29.3316 584.827 30.142C585.047 30.5826 585.399 31.0632 585.947 31.4281C586.509 31.8034 587.13 31.956 587.711 31.956V26.956ZM589.347 27.728C589.347 27.5374 589.36 27.4285 589.367 27.383C589.376 27.3307 589.371 27.4072 589.299 27.55C589.223 27.7026 589.051 27.9672 588.72 28.1881C588.373 28.4195 588.005 28.5 587.711 28.5V23.5C587.13 23.5 586.509 23.6525 585.947 24.0279C585.399 24.3928 585.047 24.8734 584.827 25.314C584.422 26.1244 584.347 27.0243 584.347 27.728H589.347ZM587.653 28.4993L600.037 28.7873L600.153 23.7887L587.769 23.5007L587.653 28.4993ZM599.957 28.7841C606.887 29.1692 612.412 29.364 616.511 29.364V24.364C612.547 24.364 607.127 24.1748 600.234 23.7918L599.957 28.7841ZM616.511 29.364C619.854 29.364 624.62 29.1681 630.779 28.7831L630.467 23.7929C624.338 24.1759 619.696 24.364 616.511 24.364V29.364ZM630.683 28.7873L642.779 28.4993L642.66 23.5007L630.564 23.7887L630.683 28.7873ZM642.719 28.5C642.109 28.5 641.569 28.241 641.203 27.8758C640.9 27.5719 640.799 27.2809 640.78 27.2226C640.745 27.1197 640.795 27.225 640.795 27.728H645.795C645.795 27.079 645.749 26.3203 645.523 25.6414C645.318 25.0268 644.572 23.5 642.719 23.5V28.5ZM640.795 27.728C640.795 28.231 640.745 28.3363 640.78 28.2334C640.799 28.1751 640.9 27.8841 641.203 27.5802C641.569 27.215 642.109 26.956 642.719 26.956V31.956C644.572 31.956 645.318 30.4292 645.523 29.8146C645.749 29.1357 645.795 28.377 645.795 27.728H640.795ZM642.719 26.956C634.505 26.956 627.939 29.4964 623.503 34.931C619.145 40.2687 617.179 47.9959 617.179 57.68H622.179C622.179 48.5481 624.053 42.1633 627.376 38.0929C630.619 34.1196 635.574 31.956 642.719 31.956V26.956ZM617.179 57.68V139.472H622.179V57.68H617.179ZM617.179 139.472C617.179 161.075 611.181 177.66 599.466 189.558L603.029 193.066C615.89 180.004 622.179 162.029 622.179 139.472H617.179ZM599.479 189.544C587.749 201.274 571.922 207.244 551.711 207.244V212.244C572.973 212.244 590.169 205.926 603.015 193.08L599.479 189.544ZM551.711 207.244C537.834 207.244 525.761 204.527 515.421 199.172L513.122 203.612C524.286 209.393 537.172 212.244 551.711 212.244V207.244ZM515.437 199.181C505.285 193.827 497.375 186.282 491.661 176.514L487.345 179.038C493.536 189.622 502.138 197.821 513.105 203.603L515.437 199.181ZM491.689 176.562C486.167 166.623 483.363 154.958 483.363 141.488H478.363C478.363 155.666 481.32 168.193 487.318 178.99L491.689 176.562ZM483.363 141.488V49.328H478.363V141.488H483.363ZM483.363 49.328C483.363 43.4941 482.793 38.8454 481.433 35.6712L476.837 37.6408C477.781 39.8426 478.363 43.6419 478.363 49.328H483.363ZM481.433 35.6712C479.915 32.1287 476.897 29.8875 472.892 28.7752L471.554 33.5928C474.462 34.4005 476.052 35.8073 476.837 37.6408L481.433 35.6712ZM473.055 28.8265C469.364 27.5238 463.72 26.956 456.383 26.956V31.956C463.639 31.956 468.554 32.5402 471.391 33.5415L473.055 28.8265ZM456.383 26.956C456.994 26.956 457.534 27.2149 457.899 27.5802C458.203 27.8841 458.303 28.175 458.323 28.2334C458.357 28.3363 458.307 28.231 458.307 27.728H453.307C453.307 28.377 453.353 29.1357 453.58 29.8146C453.784 30.4292 454.531 31.956 456.383 31.956V26.956ZM458.307 27.728C458.307 27.225 458.357 27.1197 458.323 27.2226C458.303 27.281 458.203 27.5719 457.899 27.8758C457.534 28.241 456.994 28.5 456.383 28.5V23.5C454.531 23.5 453.784 25.0268 453.58 25.6414C453.353 26.3203 453.307 27.079 453.307 27.728H458.307ZM456.332 28.4995L470.444 28.7875L470.546 23.7885L456.434 23.5005L456.332 28.4995ZM470.376 28.7852C478.459 29.1701 485.031 29.364 490.079 29.364V24.364C485.143 24.364 478.659 24.1739 470.614 23.7908L470.376 28.7852ZM490.079 29.364C495.509 29.364 502.272 29.1702 510.358 28.7852L510.12 23.7908C502.078 24.1738 495.401 24.364 490.079 24.364V29.364ZM510.291 28.7875L524.115 28.4995L524.011 23.5005L510.187 23.7885L510.291 28.7875ZM524.063 28.5C523.77 28.5 523.401 28.4195 523.055 28.1881C522.723 27.9672 522.551 27.7026 522.475 27.55C522.404 27.4073 522.399 27.3307 522.407 27.383C522.415 27.4285 522.427 27.5374 522.427 27.728H527.427C527.427 27.0243 527.353 26.1244 526.947 25.314C526.727 24.8734 526.375 24.3928 525.828 24.0279C525.265 23.6525 524.645 23.5 524.063 23.5V28.5ZM522.427 27.728C522.427 27.9185 522.415 28.0275 522.407 28.073C522.399 28.1253 522.404 28.0487 522.475 27.9059C522.551 27.7534 522.723 27.4887 523.055 27.2679C523.401 27.0365 523.77 26.956 524.063 26.956V31.956C524.645 31.956 525.265 31.8034 525.828 31.4281C526.375 31.0632 526.727 30.5826 526.947 30.142C527.353 29.3316 527.427 28.4317 527.427 27.728H522.427ZM524.063 26.956C516.895 26.956 511.284 27.5285 507.433 28.8123L509.014 33.5557C512.075 32.5354 517.023 31.956 524.063 31.956V26.956ZM507.433 28.8123C503.414 30.1519 500.464 32.619 498.99 36.3035L503.632 38.1605C504.463 36.085 506.121 34.5201 509.014 33.5557L507.433 28.8123ZM499.013 36.2472C497.653 39.4214 497.083 44.0701 497.083 49.904H502.083C502.083 44.2179 502.665 40.4186 503.609 38.2168L499.013 36.2472ZM497.083 49.904V131.408H502.083V49.904H497.083ZM497.083 131.408C497.083 154.217 502.247 172.154 512.934 184.857L516.76 181.639C507.095 170.15 502.083 153.527 502.083 131.408H497.083ZM512.962 184.89C523.886 197.432 539.026 203.604 558.047 203.604V198.604C540.204 198.604 526.544 192.872 516.732 181.606L512.962 184.89ZM558.047 203.604C575.885 203.604 590.064 198.029 600.232 186.641L596.502 183.311C587.471 193.427 574.77 198.604 558.047 198.604V203.604ZM600.247 186.625C610.36 175.096 615.267 159.37 615.267 139.76H610.267C610.267 158.55 605.575 172.968 596.488 183.327L600.247 186.625ZM615.267 139.76V57.68H610.267V139.76H615.267ZM781.605 182.096L779.683 183.694L779.683 183.694L781.605 182.096ZM734.373 116.432L736.464 115.062L735.517 113.617L733.831 113.992L734.373 116.432ZM705.285 117.296L705.477 114.803L702.785 114.596V117.296H705.285ZM707.013 195.632L704.715 196.617L704.715 196.617L707.013 195.632ZM713.637 201.104L712.932 203.502L712.95 203.508L712.968 203.513L713.637 201.104ZM715.653 205.712L715.792 203.216L715.74 203.213L715.689 203.212L715.653 205.712ZM695.781 205.424L695.817 202.924L695.781 202.924L695.744 202.924L695.781 205.424ZM676.197 205.712L676.16 203.212L676.109 203.213L676.058 203.216L676.197 205.712ZM677.637 201.104L678.306 203.513L678.306 203.513L677.637 201.104ZM684.549 195.632L682.284 194.575L682.267 194.611L682.251 194.647L684.549 195.632ZM684.837 36.656L682.539 37.6408L682.539 37.6408L684.837 36.656ZM677.925 31.184L677.093 33.5415L677.174 33.5699L677.256 33.5928L677.925 31.184ZM662.085 26L662.136 23.5005L662.111 23.5H662.085V26ZM676.197 26.288L676.316 23.7908L676.282 23.7892L676.248 23.7885L676.197 26.288ZM707.589 26.576L707.458 24.0794L707.458 24.0794L707.589 26.576ZM716.805 26L716.997 28.4927L717.007 28.4918L716.805 26ZM771.237 35.504L769.632 37.4209L769.632 37.4209L771.237 35.504ZM774.405 91.376L772.383 89.9055L772.377 89.914L774.405 91.376ZM750.501 110.96L749.418 108.707L746.775 109.977L748.447 112.386L750.501 110.96ZM791.109 165.68L789.182 167.272L789.194 167.287L789.207 167.302L791.109 165.68ZM820.485 193.904L819.077 195.97L819.087 195.977L819.098 195.984L820.485 193.904ZM705.285 110.384H702.785V112.516L704.89 112.853L705.285 110.384ZM754.245 101.744L752.477 99.9762L752.464 99.9894L752.451 100.003L754.245 101.744ZM753.957 39.248L752.189 41.0158L752.202 41.0286L752.215 41.0412L753.957 39.248ZM845.829 205.044C845.219 205.044 844.679 204.785 844.313 204.42C844.009 204.116 843.909 203.825 843.889 203.767C843.855 203.664 843.905 203.769 843.905 204.272H848.905C848.905 203.623 848.859 202.864 848.633 202.185C848.428 201.571 847.682 200.044 845.829 200.044V205.044ZM843.905 204.272C843.905 204.775 843.855 204.88 843.889 204.777C843.909 204.719 844.009 204.428 844.313 204.124C844.679 203.759 845.219 203.5 845.829 203.5V208.5C847.682 208.5 848.428 206.973 848.633 206.359C848.859 205.68 848.905 204.921 848.905 204.272H843.905ZM845.829 203.5H808.677V208.5H845.829V203.5ZM808.677 203.5C808.116 203.5 807.105 203.246 805.533 202.34C804.003 201.458 802.151 200.081 799.964 198.15C795.592 194.29 790.119 188.427 783.527 180.498L779.683 183.694C786.339 191.701 792.002 197.79 796.654 201.898C798.979 203.951 801.111 205.562 803.037 206.672C804.921 207.758 806.838 208.5 808.677 208.5V203.5ZM783.527 180.498C770.365 164.665 754.679 142.864 736.464 115.062L732.282 117.802C750.547 145.68 766.349 167.655 779.683 183.694L783.527 180.498ZM733.831 113.992C728.833 115.102 723.639 115.66 718.245 115.66V120.66C723.987 120.66 729.545 120.066 734.915 118.872L733.831 113.992ZM718.245 115.66C717.216 115.66 713.029 115.384 705.477 114.803L705.093 119.789C712.517 120.36 716.97 120.66 718.245 120.66V115.66ZM702.785 117.296V182.672H707.785V117.296H702.785ZM702.785 182.672C702.785 188.684 703.352 193.436 704.715 196.617L709.311 194.647C708.37 192.452 707.785 188.564 707.785 182.672H702.785ZM704.715 196.617C706.21 200.106 709.083 202.37 712.932 203.502L714.342 198.706C711.663 197.918 710.12 196.534 709.311 194.647L704.715 196.617ZM712.968 203.513C716.767 204.568 722.426 205.044 729.765 205.044V200.044C722.512 200.044 717.419 199.56 714.306 198.695L712.968 203.513ZM729.765 205.044C729.472 205.044 729.103 204.963 728.756 204.732C728.425 204.511 728.253 204.247 728.177 204.094C728.106 203.951 728.1 203.875 728.109 203.927C728.117 203.973 728.129 204.081 728.129 204.272H733.129C733.129 203.568 733.054 202.668 732.649 201.858C732.429 201.417 732.077 200.937 731.53 200.572C730.967 200.197 730.346 200.044 729.765 200.044V205.044ZM728.129 204.272C728.129 204.463 728.117 204.571 728.109 204.617C728.1 204.669 728.106 204.593 728.177 204.45C728.253 204.297 728.425 204.033 728.756 203.812C729.103 203.581 729.472 203.5 729.765 203.5V208.5C730.346 208.5 730.967 208.347 731.53 207.972C732.077 207.607 732.429 207.127 732.649 206.686C733.054 205.876 733.129 204.976 733.129 204.272H728.129ZM729.765 203.5C723.832 203.5 719.18 203.404 715.792 203.216L715.514 208.208C719.038 208.404 723.794 208.5 729.765 208.5V203.5ZM715.689 203.212L695.817 202.924L695.745 207.924L715.617 208.212L715.689 203.212ZM695.744 202.924L676.16 203.212L676.234 208.212L695.818 207.924L695.744 202.924ZM676.058 203.216C672.672 203.404 667.83 203.5 661.509 203.5V208.5C667.86 208.5 672.81 208.404 676.336 208.208L676.058 203.216ZM661.509 203.5C662.119 203.5 662.659 203.759 663.025 204.124C663.329 204.428 663.429 204.719 663.449 204.777C663.483 204.88 663.433 204.775 663.433 204.272H658.433C658.433 204.921 658.479 205.68 658.705 206.359C658.91 206.973 659.656 208.5 661.509 208.5V203.5ZM663.433 204.272C663.433 203.769 663.483 203.664 663.449 203.767C663.429 203.825 663.329 204.116 663.025 204.42C662.659 204.785 662.119 205.044 661.509 205.044V200.044C659.656 200.044 658.91 201.571 658.705 202.185C658.479 202.864 658.433 203.623 658.433 204.272H663.433ZM661.509 205.044C668.848 205.044 674.507 204.568 678.306 203.513L676.968 198.695C673.855 199.56 668.762 200.044 661.509 200.044V205.044ZM678.306 203.513C682.31 202.4 685.329 200.159 686.847 196.617L682.251 194.647C681.465 196.481 679.876 197.887 676.968 198.695L678.306 203.513ZM686.814 196.689C688.392 193.309 689.065 188.547 689.065 182.672H684.065C684.065 188.317 683.394 192.195 682.284 194.575L686.814 196.689ZM689.065 182.672V49.328H684.065V182.672H689.065ZM689.065 49.328C689.065 43.4941 688.495 38.8454 687.135 35.6712L682.539 37.6408C683.483 39.8426 684.065 43.6419 684.065 49.328H689.065ZM687.135 35.6712C685.617 32.1287 682.598 29.8875 678.594 28.7752L677.256 33.5928C680.164 34.4005 681.753 35.8073 682.539 37.6408L687.135 35.6712ZM678.757 28.8265C675.066 27.5238 669.422 26.956 662.085 26.956V31.956C669.34 31.956 674.256 32.5402 677.093 33.5415L678.757 28.8265ZM662.085 26.956C662.378 26.956 662.747 27.0365 663.094 27.2679C663.425 27.4888 663.597 27.7534 663.673 27.906C663.744 28.0487 663.75 28.1253 663.741 28.073C663.733 28.0275 663.721 27.9185 663.721 27.728H658.721C658.721 28.4317 658.796 29.3316 659.201 30.142C659.421 30.5826 659.773 31.0632 660.32 31.4281C660.883 31.8034 661.504 31.956 662.085 31.956V26.956ZM663.721 27.728C663.721 27.5374 663.733 27.4285 663.741 27.383C663.75 27.3307 663.744 27.4072 663.673 27.55C663.597 27.7026 663.425 27.9672 663.094 28.1881C662.747 28.4195 662.378 28.5 662.085 28.5V23.5C661.504 23.5 660.883 23.6525 660.32 24.0279C659.773 24.3928 659.421 24.8734 659.201 25.314C658.796 26.1244 658.721 27.0243 658.721 27.728H663.721ZM662.034 28.4995L676.146 28.7875L676.248 23.7885L662.136 23.5005L662.034 28.4995ZM676.078 28.7852C684.161 29.1701 690.733 29.364 695.781 29.364V24.364C690.845 24.364 684.361 24.1739 676.316 23.7908L676.078 28.7852ZM695.781 29.364C700.042 29.364 704.023 29.2672 707.72 29.0725L707.458 24.0794C703.859 24.2688 699.968 24.364 695.781 24.364V29.364ZM707.72 29.0725C711.38 28.8799 714.474 28.6867 716.997 28.4926L716.613 23.5074C714.144 23.6973 711.094 23.8881 707.458 24.0794L707.72 29.0725ZM717.007 28.4918C724.059 27.92 730.422 27.636 736.101 27.636V22.636C730.26 22.636 723.759 22.9279 716.603 23.5082L717.007 28.4918ZM736.101 27.636C750.919 27.636 761.979 31.0138 769.632 37.4209L772.842 33.5871C763.983 26.1702 751.619 22.636 736.101 22.636V27.636ZM769.632 37.4209C777.277 43.8213 781.121 52.313 781.121 63.152H786.121C786.121 50.951 781.709 41.0107 772.842 33.5871L769.632 37.4209ZM781.121 63.152C781.121 72.9874 778.219 81.8814 772.383 89.9056L776.427 92.8464C782.879 83.9746 786.121 74.0526 786.121 63.152H781.121ZM772.377 89.914C766.69 97.8022 759.06 104.071 749.418 108.707L751.584 113.213C761.91 108.249 770.216 101.462 776.433 92.838L772.377 89.914ZM748.447 112.386C764.593 135.644 778.174 153.947 789.182 167.272L793.036 164.088C782.156 150.917 768.665 132.74 752.555 109.534L748.447 112.386ZM789.207 167.302C800.404 180.43 810.363 190.028 819.077 195.97L821.893 191.838C813.711 186.26 804.086 177.042 793.011 164.058L789.207 167.302ZM819.098 195.984C828.043 201.947 836.966 205.044 845.829 205.044V200.044C838.18 200.044 830.207 197.381 821.872 191.824L819.098 195.984ZM704.89 112.853C709.856 113.647 715.658 114.036 722.277 114.036V109.036C715.84 109.036 710.314 108.657 705.68 107.915L704.89 112.853ZM722.277 114.036C737.512 114.036 749.005 110.733 756.039 103.485L752.451 100.003C746.813 105.811 736.994 109.036 722.277 109.036V114.036ZM756.013 103.512C763.193 96.3317 766.537 85.4848 766.537 71.504H761.537C761.537 84.7872 758.353 94.1003 752.477 99.9762L756.013 103.512ZM766.537 71.504C766.537 56.2434 763.126 44.6698 755.699 37.4548L752.215 41.0412C758.228 46.8821 761.537 56.8126 761.537 71.504H766.537ZM755.725 37.4802C748.575 30.3308 738.239 26.956 725.157 26.956V31.956C737.419 31.956 746.283 35.1092 752.189 41.0158L755.725 37.4802ZM725.157 26.956C717.538 26.956 711.511 28.2892 707.899 31.6604L711.311 35.3156C713.459 33.3108 717.8 31.956 725.157 31.956V26.956ZM707.899 31.6604C705.995 33.4377 704.738 35.9683 703.947 38.9718C703.154 41.9866 702.785 45.65 702.785 49.904H707.785C707.785 45.902 708.136 42.7014 708.783 40.2442C709.432 37.7757 710.335 36.2263 711.311 35.3156L707.899 31.6604ZM702.785 49.904V110.384H707.785V49.904H702.785ZM885.076 79.28L887.167 77.9099L887.167 77.9099L885.076 79.28ZM898.324 93.392L896.836 95.4009L896.877 95.4317L896.92 95.4607L898.324 93.392ZM920.212 107.216L918.919 109.356L918.92 109.356L920.212 107.216ZM943.54 122.48L942.04 124.48L942.057 124.493L942.073 124.505L943.54 122.48ZM957.652 138.032L955.514 139.328L955.537 139.366L955.562 139.404L957.652 138.032ZM936.34 203.12L937.418 205.375L937.429 205.37L937.439 205.366L936.34 203.12ZM863.764 199.376L862.478 201.52L862.52 201.545L862.564 201.569L863.764 199.376ZM861.748 197.36L859.322 197.966L859.389 198.233L859.512 198.478L861.748 197.36ZM861.172 193.904L858.683 194.142L858.687 194.178L858.691 194.214L861.172 193.904ZM857.428 154.736L859.916 154.498L859.899 154.312L859.853 154.13L857.428 154.736ZM858.58 153.296L858.169 150.83L858.129 150.837L858.089 150.845L858.58 153.296ZM860.596 154.16L863.036 153.618L863.029 153.586L863.021 153.554L860.596 154.16ZM877.588 189.872L875.661 191.465L875.67 191.476L875.679 191.487L877.588 189.872ZM935.188 197.072L936.742 199.03L936.749 199.024L935.188 197.072ZM939.508 149.264L941.646 147.968L941.646 147.968L939.508 149.264ZM925.396 133.712L923.851 135.678L923.89 135.708L923.929 135.737L925.396 133.712ZM903.22 119.024L901.927 121.164L901.937 121.17L901.946 121.175L903.22 119.024ZM881.332 104.624L879.797 106.597L879.814 106.611L879.832 106.624L881.332 104.624ZM868.084 89.36L870.233 88.0836L870.233 88.0836L868.084 89.36ZM870.1 43.28L868.1 41.78L868.093 41.7892L870.1 43.28ZM889.972 28.016L890.91 30.3334L890.923 30.3278L890.937 30.3221L889.972 28.016ZM949.876 29.744L948.92 32.054L949.001 32.0878L949.085 32.1157L949.876 29.744ZM954.196 34.64H951.696V34.716L951.7 34.7919L954.196 34.64ZM956.212 67.76H958.712V67.684L958.707 67.6081L956.212 67.76ZM953.044 67.76L950.573 68.1401L950.59 68.2543L950.618 68.3663L953.044 67.76ZM940.66 40.112L938.686 41.6468L938.695 41.6576L938.703 41.6683L940.66 40.112ZM887.38 36.656L885.473 35.0386L885.469 35.0438L887.38 36.656ZM877.104 59.696C877.104 67.6079 879.037 74.6254 882.985 80.6501L887.167 77.9099C883.818 72.7986 882.104 66.76 882.104 59.696H877.104ZM882.985 80.6501C886.789 86.457 891.407 91.3796 896.836 95.4009L899.812 91.3831C894.873 87.7244 890.658 83.239 887.167 77.9099L882.985 80.6501ZM896.92 95.4607C902.348 99.1441 909.686 103.778 918.919 109.356L921.505 105.076C912.305 99.5183 905.051 94.9359 899.728 91.3233L896.92 95.4607ZM918.92 109.356C929.069 115.484 936.763 120.522 942.04 124.48L945.04 120.48C939.565 116.374 931.706 111.236 921.504 105.076L918.92 109.356ZM942.073 124.505C947.351 128.326 951.833 133.255 955.514 139.328L959.79 136.736C955.79 130.137 950.865 124.698 945.006 120.455L942.073 124.505ZM955.562 139.404C959.282 145.073 961.2 151.968 961.2 160.208H966.2C966.2 151.168 964.085 143.279 959.742 136.66L955.562 139.404ZM961.2 160.208C961.2 168.985 959.012 176.879 954.659 183.954L958.917 186.574C963.779 178.673 966.2 169.863 966.2 160.208H961.2ZM954.659 183.954C950.333 190.984 943.902 196.636 935.241 200.874L937.439 205.366C946.826 200.772 954.027 194.52 958.917 186.574L954.659 183.954ZM935.261 200.865C926.845 204.89 916.578 206.956 904.372 206.956V211.956C917.126 211.956 928.17 209.798 937.418 205.375L935.261 200.865ZM904.372 206.956C889.983 206.956 876.863 203.69 864.963 197.183L862.564 201.569C875.241 208.502 889.193 211.956 904.372 211.956V206.956ZM865.05 197.232C864.376 196.828 864.1 196.473 863.984 196.242L859.512 198.478C860.164 199.783 861.232 200.772 862.478 201.52L865.05 197.232ZM864.173 196.754C864.019 196.136 863.841 195.105 863.652 193.594L858.691 194.214C858.886 195.775 859.093 197.048 859.322 197.966L864.173 196.754ZM863.66 193.666L859.916 154.498L854.939 154.974L858.683 194.142L863.66 193.666ZM859.853 154.13C859.866 154.181 859.9 154.35 859.863 154.594C859.822 154.858 859.709 155.131 859.524 155.362C859.186 155.785 858.845 155.792 859.07 155.747L858.089 150.845C857.354 150.992 856.342 151.335 855.62 152.238C854.805 153.257 854.777 154.44 855.002 155.342L859.853 154.13ZM858.991 155.762C859.066 155.749 859.123 155.743 859.163 155.74C859.204 155.738 859.222 155.739 859.222 155.739C859.222 155.739 859.198 155.737 859.154 155.728C859.111 155.719 859.044 155.701 858.963 155.666C858.789 155.591 858.592 155.458 858.427 155.257C858.267 155.061 858.198 154.875 858.17 154.766L863.021 153.554C862.754 152.484 862.053 151.55 860.933 151.07C859.967 150.656 858.96 150.698 858.169 150.83L858.991 155.762ZM858.155 154.702C861.305 168.876 867.13 181.149 875.661 191.465L879.514 188.279C871.533 178.627 866.031 167.092 863.036 153.618L858.155 154.702ZM875.679 191.487C884.632 202.068 896.484 207.348 910.996 207.348V202.348C897.859 202.348 887.439 197.644 879.496 188.257L875.679 191.487ZM910.996 207.348C921.071 207.348 929.707 204.617 936.742 199.03L933.633 195.114C927.613 199.895 920.121 202.348 910.996 202.348V207.348ZM936.749 199.024C944.249 193.025 947.768 183.732 947.768 171.728H942.768C942.768 182.764 939.567 190.367 933.626 195.12L936.749 199.024ZM947.768 171.728C947.768 162.708 945.76 154.756 941.646 147.968L937.37 150.56C940.936 156.444 942.768 163.468 942.768 171.728H947.768ZM941.646 147.968C937.646 141.369 932.721 135.93 926.862 131.687L923.929 135.737C929.207 139.558 933.689 144.487 937.37 150.56L941.646 147.968ZM926.94 131.746C921.443 127.427 913.947 122.468 904.493 116.873L901.946 121.175C911.309 126.716 918.597 131.549 923.851 135.678L926.94 131.746ZM904.513 116.884C895.331 111.337 888.114 106.585 882.832 102.624L879.832 106.624C885.302 110.727 892.677 115.575 901.927 121.164L904.513 116.884ZM882.867 102.651C877.95 98.8267 873.736 93.9827 870.233 88.0836L865.934 90.6363C869.728 97.0253 874.345 102.357 879.797 106.597L882.867 102.651ZM870.233 88.0836C866.848 82.3826 865.112 75.6377 865.112 67.76H860.112C860.112 76.3943 862.023 84.0494 865.934 90.6363L870.233 88.0836ZM865.112 67.76C865.112 58.6149 867.481 50.9982 872.107 44.7708L868.093 41.7892C862.735 49.0018 860.112 57.7051 860.112 67.76H865.112ZM872.1 44.78C877.009 38.2347 883.264 33.4279 890.91 30.3334L889.034 25.6986C880.551 29.1321 873.559 34.5013 868.1 41.78L872.1 44.78ZM890.937 30.3221C898.878 26.9979 907.285 25.332 916.18 25.332V20.332C906.642 20.332 897.577 22.1221 889.006 25.7099L890.937 30.3221ZM916.18 25.332C927.159 25.332 938.067 27.5633 948.92 32.054L950.832 27.4339C939.412 22.7087 927.856 20.332 916.18 20.332V25.332ZM949.085 32.1157C950.264 32.5087 950.906 32.962 951.241 33.342C951.533 33.6729 951.696 34.0582 951.696 34.64H956.696C956.696 32.9178 956.138 31.335 954.99 30.0339C953.886 28.782 952.367 27.9393 950.666 27.3723L949.085 32.1157ZM951.7 34.7919L953.716 67.9119L958.707 67.6081L956.691 34.4881L951.7 34.7919ZM953.712 67.76C953.712 67.6959 953.721 67.5247 953.814 67.3025C953.913 67.065 954.077 66.8423 954.29 66.6718C954.682 66.3585 954.985 66.412 954.772 66.412V71.412C955.519 71.412 956.542 71.2735 957.413 70.5762C958.392 69.7936 958.712 68.6958 958.712 67.76H953.712ZM954.772 66.412C954.601 66.412 954.753 66.3751 955.007 66.5439C955.137 66.631 955.253 66.7466 955.34 66.8772C955.424 67.0032 955.457 67.107 955.469 67.1536L950.618 68.3663C950.842 69.261 951.353 70.1176 952.233 70.7041C953.062 71.2569 953.983 71.412 954.772 71.412V66.412ZM955.515 67.3799C953.908 56.9362 949.588 47.3201 942.616 38.5557L938.703 41.6683C945.172 49.7999 949.108 58.6158 950.573 68.1401L955.515 67.3799ZM942.633 38.5771C935.361 29.2273 924.878 24.652 911.572 24.652V29.652C923.61 29.652 932.518 33.7166 938.686 41.6468L942.633 38.5771ZM911.572 24.652C900.317 24.652 891.456 27.9875 885.473 35.0386L889.286 38.2734C894.055 32.6525 901.322 29.652 911.572 29.652V24.652ZM885.469 35.0438C879.849 41.7041 877.104 49.9814 877.104 59.696H882.104C882.104 50.9786 884.542 43.8958 889.29 38.2682L885.469 35.0438Z" fill="#F10C08"/>
</g>
<defs>
<filter id="filter0_dd" x="-3.996" y="0.332031" width="990.196" height="231.912" filterUnits="userSpaceOnUse" color-interpolation-filters="sRGB">
<feFlood flood-opacity="0" result="BackgroundImageFix"/>
<feColorMatrix in="SourceAlpha" type="matrix" values="0 0 0 0 0 0 0 0 0 0 0 0 0 0 0 0 0 0 127 0"/>
<feOffset/>
<feGaussianBlur stdDeviation="10"/>
<feColorMatrix type="matrix" values="0 0 0 0 0.945098 0 0 0 0 0.0470588 0 0 0 0 0.0313726 0 0 0 1 0"/>
<feBlend mode="normal" in2="BackgroundImageFix" result="effect1_dropShadow"/>
<feColorMatrix in="SourceAlpha" type="matrix" values="0 0 0 0 0 0 0 0 0 0 0 0 0 0 0 0 0 0 127 0"/>
<feOffset/>
<feGaussianBlur stdDeviation="5"/>
<feColorMatrix type="matrix" values="0 0 0 0 0.709804 0 0 0 0 0.00392157 0 0 0 0 0.00784319 0 0 0 0.65 0"/>
<feBlend mode="normal" in2="effect1_dropShadow" result="effect2_dropShadow"/>
<feBlend mode="normal" in="SourceGraphic" in2="effect2_dropShadow" result="shape"/>
</filter>
</defs>
</svg>
