<svg width="623" height="87" viewBox="0 0 623 87" fill="none" xmlns="http://www.w3.org/2000/svg">
<g filter="url(#filter0_d)">
<path d="M30.43 23.62H31.43V22.62H30.43V23.62ZM30.43 76H29.43V77H30.43V76ZM44.56 76V77H45.56V76H44.56ZM44.56 23.62V22.62H43.56V23.62H44.56ZM63.82 23.62V24.62H64.82V23.62H63.82ZM63.82 11.74H64.82V10.74H63.82V11.74ZM11.17 11.74V10.74H10.17V11.74H11.17ZM11.17 23.62H10.17V24.62H11.17V23.62ZM29.43 23.62V76H31.43V23.62H29.43ZM30.43 77H44.56V75H30.43V77ZM45.56 76V23.62H43.56V76H45.56ZM44.56 24.62H63.82V22.62H44.56V24.62ZM64.82 23.62V11.74H62.82V23.62H64.82ZM63.82 10.74H11.17V12.74H63.82V10.74ZM10.17 11.74V23.62H12.17V11.74H10.17ZM11.17 24.62H30.43V22.62H11.17V24.62ZM71.2295 11.74V10.74H70.2295V11.74H71.2295ZM71.2295 76H70.2295V77H71.2295V76ZM85.3595 76V77H86.3595V76H85.3595ZM85.3595 48.28V47.28H84.3595V48.28H85.3595ZM111.37 48.28H112.37V47.28H111.37V48.28ZM111.37 76H110.37V77H111.37V76ZM125.5 76V77H126.5V76H125.5ZM125.5 11.74H126.5V10.74H125.5V11.74ZM111.37 11.74V10.74H110.37V11.74H111.37ZM111.37 36.4V37.4H112.37V36.4H111.37ZM85.3595 36.4H84.3595V37.4H85.3595V36.4ZM85.3595 11.74H86.3595V10.74H85.3595V11.74ZM70.2295 11.74V76H72.2295V11.74H70.2295ZM71.2295 77H85.3595V75H71.2295V77ZM86.3595 76V48.28H84.3595V76H86.3595ZM85.3595 49.28H111.37V47.28H85.3595V49.28ZM110.37 48.28V76H112.37V48.28H110.37ZM111.37 77H125.5V75H111.37V77ZM126.5 76V11.74H124.5V76H126.5ZM125.5 10.74H111.37V12.74H125.5V10.74ZM110.37 11.74V36.4H112.37V11.74H110.37ZM111.37 35.4H85.3595V37.4H111.37V35.4ZM86.3595 36.4V11.74H84.3595V36.4H86.3595ZM85.3595 10.74H71.2295V12.74H85.3595V10.74ZM137.939 11.74V10.74H136.939V11.74H137.939ZM137.939 76H136.939V77H137.939V76ZM186.719 76V77H187.719V76H186.719ZM186.719 64.12H187.719V63.12H186.719V64.12ZM152.069 64.12H151.069V65.12H152.069V64.12ZM152.069 48.37V47.37H151.069V48.37H152.069ZM183.209 48.37V49.37H184.209V48.37H183.209ZM183.209 37.39H184.209V36.39H183.209V37.39ZM152.069 37.39H151.069V38.39H152.069V37.39ZM152.069 23.62V22.62H151.069V23.62H152.069ZM185.999 23.62V24.62H186.999V23.62H185.999ZM185.999 11.74H186.999V10.74H185.999V11.74ZM136.939 11.74V76H138.939V11.74H136.939ZM137.939 77H186.719V75H137.939V77ZM187.719 76V64.12H185.719V76H187.719ZM186.719 63.12H152.069V65.12H186.719V63.12ZM153.069 64.12V48.37H151.069V64.12H153.069ZM152.069 49.37H183.209V47.37H152.069V49.37ZM184.209 48.37V37.39H182.209V48.37H184.209ZM183.209 36.39H152.069V38.39H183.209V36.39ZM153.069 37.39V23.62H151.069V37.39H153.069ZM152.069 24.62H185.999V22.62H152.069V24.62ZM186.999 23.62V11.74H184.999V23.62H186.999ZM185.999 10.74H137.939V12.74H185.999V10.74ZM282.547 76V77H283.313L283.512 76.2597L282.547 76ZM299.827 11.74L300.792 11.9997L301.131 10.74H299.827V11.74ZM285.967 11.74V10.74H285.177L284.994 11.5086L285.967 11.74ZM275.437 56.02V57.02H276.227L276.41 56.2514L275.437 56.02ZM275.257 56.02L274.286 56.2607L274.474 57.02H275.257V56.02ZM264.277 11.74L265.247 11.4993L265.059 10.74H264.277V11.74ZM251.047 11.74V10.74H250.27L250.078 11.4928L251.047 11.74ZM239.887 55.48V56.48H240.664L240.856 55.7272L239.887 55.48ZM239.707 55.48L238.733 55.7065L238.913 56.48H239.707V55.48ZM229.537 11.74L230.511 11.5135L230.331 10.74H229.537V11.74ZM215.407 11.74V10.74H214.108L214.44 11.9959L215.407 11.74ZM232.417 76L231.45 76.2559L231.647 77H232.417V76ZM246.727 76V77H247.511L247.698 76.2378L246.727 76ZM257.437 32.26V31.26H256.652L256.465 32.0222L257.437 32.26ZM257.617 32.26L258.587 32.0184L258.398 31.26H257.617V32.26ZM268.507 76L267.536 76.2416L267.725 77H268.507V76ZM283.512 76.2597L300.792 11.9997L298.861 11.4803L281.581 75.7403L283.512 76.2597ZM299.827 10.74H285.967V12.74H299.827V10.74ZM284.994 11.5086L274.464 55.7886L276.41 56.2514L286.94 11.9713L284.994 11.5086ZM275.437 55.02H275.257V57.02H275.437V55.02ZM276.227 55.7793L265.247 11.4993L263.306 11.9807L274.286 56.2607L276.227 55.7793ZM264.277 10.74H251.047V12.74H264.277V10.74ZM250.078 11.4928L238.918 55.2328L240.856 55.7272L252.016 11.9872L250.078 11.4928ZM239.887 54.48H239.707V56.48H239.887V54.48ZM240.681 55.2535L230.511 11.5135L228.563 11.9665L238.733 55.7065L240.681 55.2535ZM229.537 10.74H215.407V12.74H229.537V10.74ZM214.44 11.9959L231.45 76.2559L233.383 75.7441L216.373 11.4841L214.44 11.9959ZM232.417 77H246.727V75H232.417V77ZM247.698 76.2378L258.408 32.4978L256.465 32.0222L245.755 75.7622L247.698 76.2378ZM257.437 33.26H257.617V31.26H257.437V33.26ZM256.646 32.5016L267.536 76.2416L269.477 75.7584L258.587 32.0184L256.646 32.5016ZM268.507 77H282.547V75H268.507V77ZM306.337 11.74V10.74H305.337V11.74H306.337ZM306.337 76H305.337V77H306.337V76ZM355.117 76V77H356.117V76H355.117ZM355.117 64.12H356.117V63.12H355.117V64.12ZM320.467 64.12H319.467V65.12H320.467V64.12ZM320.467 48.37V47.37H319.467V48.37H320.467ZM351.607 48.37V49.37H352.607V48.37H351.607ZM351.607 37.39H352.607V36.39H351.607V37.39ZM320.467 37.39H319.467V38.39H320.467V37.39ZM320.467 23.62V22.62H319.467V23.62H320.467ZM354.397 23.62V24.62H355.397V23.62H354.397ZM354.397 11.74H355.397V10.74H354.397V11.74ZM305.337 11.74V76H307.337V11.74H305.337ZM306.337 77H355.117V75H306.337V77ZM356.117 76V64.12H354.117V76H356.117ZM355.117 63.12H320.467V65.12H355.117V63.12ZM321.467 64.12V48.37H319.467V64.12H321.467ZM320.467 49.37H351.607V47.37H320.467V49.37ZM352.607 48.37V37.39H350.607V48.37H352.607ZM351.607 36.39H320.467V38.39H351.607V36.39ZM321.467 37.39V23.62H319.467V37.39H321.467ZM320.467 24.62H354.397V22.62H320.467V24.62ZM355.397 23.62V11.74H353.397V23.62H355.397ZM354.397 10.74H306.337V12.74H354.397V10.74ZM364.696 11.74V10.74H363.696V11.74H364.696ZM364.696 76H363.696V77H364.696V76ZM413.476 76V77H414.476V76H413.476ZM413.476 64.12H414.476V63.12H413.476V64.12ZM378.826 64.12H377.826V65.12H378.826V64.12ZM378.826 48.37V47.37H377.826V48.37H378.826ZM409.966 48.37V49.37H410.966V48.37H409.966ZM409.966 37.39H410.966V36.39H409.966V37.39ZM378.826 37.39H377.826V38.39H378.826V37.39ZM378.826 23.62V22.62H377.826V23.62H378.826ZM412.756 23.62V24.62H413.756V23.62H412.756ZM412.756 11.74H413.756V10.74H412.756V11.74ZM363.696 11.74V76H365.696V11.74H363.696ZM364.696 77H413.476V75H364.696V77ZM414.476 76V64.12H412.476V76H414.476ZM413.476 63.12H378.826V65.12H413.476V63.12ZM379.826 64.12V48.37H377.826V64.12H379.826ZM378.826 49.37H409.966V47.37H378.826V49.37ZM410.966 48.37V37.39H408.966V48.37H410.966ZM409.966 36.39H378.826V38.39H409.966V36.39ZM379.826 37.39V23.62H377.826V37.39H379.826ZM378.826 24.62H412.756V22.62H378.826V24.62ZM413.756 23.62V11.74H411.756V23.62H413.756ZM412.756 10.74H364.696V12.74H412.756V10.74ZM423.056 11.74V10.74H422.056V11.74H423.056ZM423.056 76H422.056V77H423.056V76ZM437.186 76V77H438.186V76H437.186ZM437.186 55.3L436.475 54.5968L436.186 54.889V55.3H437.186ZM445.286 47.11L446.117 46.5535L445.435 45.5365L444.575 46.4068L445.286 47.11ZM464.636 76L463.805 76.5565L464.102 77H464.636V76ZM482.366 76V77H484.299L483.182 75.422L482.366 76ZM454.826 37.12L454.115 36.4167L453.525 37.0132L454.01 37.698L454.826 37.12ZM479.936 11.74L480.647 12.4433L482.332 10.74H479.936V11.74ZM462.296 11.74V10.74H461.864L461.568 11.0541L462.296 11.74ZM437.186 38.38H436.186V40.8989L437.913 39.0659L437.186 38.38ZM437.186 11.74H438.186V10.74H437.186V11.74ZM422.056 11.74V76H424.056V11.74H422.056ZM423.056 77H437.186V75H423.056V77ZM438.186 76V55.3H436.186V76H438.186ZM437.897 56.0032L445.997 47.8132L444.575 46.4068L436.475 54.5968L437.897 56.0032ZM444.455 47.6665L463.805 76.5565L465.467 75.4435L446.117 46.5535L444.455 47.6665ZM464.636 77H482.366V75H464.636V77ZM483.182 75.422L455.642 36.542L454.01 37.698L481.55 76.578L483.182 75.422ZM455.537 37.8233L480.647 12.4433L479.225 11.0367L454.115 36.4167L455.537 37.8233ZM479.936 10.74H462.296V12.74H479.936V10.74ZM461.568 11.0541L436.458 37.6941L437.913 39.0659L463.023 12.4259L461.568 11.0541ZM438.186 38.38V11.74H436.186V38.38H438.186ZM437.186 10.74H423.056V12.74H437.186V10.74ZM488.007 11.74V10.74H487.007V11.74H488.007ZM488.007 76H487.007V77H488.007V76ZM501.237 76V77H502.237V76H501.237ZM501.237 32.98V31.98H500.237V32.98H501.237ZM501.417 32.98L502.266 32.4522L501.973 31.98H501.417V32.98ZM528.147 76L527.297 76.5278L527.591 77H528.147V76ZM542.277 76V77H543.277V76H542.277ZM542.277 11.74H543.277V10.74H542.277V11.74ZM529.047 11.74V10.74H528.047V11.74H529.047ZM529.047 54.85V55.85H530.047V54.85H529.047ZM528.867 54.85L528.018 55.3782L528.311 55.85H528.867V54.85ZM502.047 11.74L502.896 11.2118L502.602 10.74H502.047V11.74ZM487.007 11.74V76H489.007V11.74H487.007ZM488.007 77H501.237V75H488.007V77ZM502.237 76V32.98H500.237V76H502.237ZM501.237 33.98H501.417V31.98H501.237V33.98ZM500.567 33.5078L527.297 76.5278L528.996 75.4722L502.266 32.4522L500.567 33.5078ZM528.147 77H542.277V75H528.147V77ZM543.277 76V11.74H541.277V76H543.277ZM542.277 10.74H529.047V12.74H542.277V10.74ZM528.047 11.74V54.85H530.047V11.74H528.047ZM529.047 53.85H528.867V55.85H529.047V53.85ZM529.716 54.3218L502.896 11.2118L501.198 12.2682L528.018 55.3782L529.716 54.3218ZM502.047 10.74H488.007V12.74H502.047V10.74ZM568.846 64.12H567.846V65.12H568.846V64.12ZM568.846 23.62V22.62H567.846V23.62H568.846ZM587.656 25.15L587.256 26.0667L587.27 26.0728L587.284 26.0785L587.656 25.15ZM593.416 29.38L592.625 29.9922L593.416 29.38ZM596.476 36.13L595.501 36.3516L595.504 36.3648L595.507 36.3778L596.476 36.13ZM596.116 53.86L597.055 54.2036L596.116 53.86ZM592.516 59.89L593.223 60.5971L593.23 60.5902L593.237 60.5831L592.516 59.89ZM554.716 11.74V10.74H553.716V11.74H554.716ZM554.716 76H553.716V77H554.716V76ZM595.216 73.57L595.626 74.4819L595.633 74.4788L595.216 73.57ZM604.306 66.73L603.545 66.0805L603.538 66.0898L604.306 66.73ZM609.796 56.47L610.753 56.76L609.796 56.47ZM609.346 29.56L608.406 29.9018L608.411 29.9142L609.346 29.56ZM603.226 19.66L602.511 20.359L602.519 20.3671L603.226 19.66ZM593.956 13.72L593.606 14.657L593.612 14.6589L593.956 13.72ZM569.846 64.12V23.62H567.846V64.12H569.846ZM568.846 24.62H578.926V22.62H568.846V24.62ZM578.926 24.62C582.315 24.62 585.079 25.1177 587.256 26.0667L588.055 24.2333C585.552 23.1423 582.496 22.62 578.926 22.62V24.62ZM587.284 26.0785C589.536 26.979 591.305 28.2868 592.625 29.9922L594.207 28.7678C592.647 26.7532 590.576 25.241 588.027 24.2215L587.284 26.0785ZM592.625 29.9922C593.963 31.7208 594.928 33.8323 595.501 36.3516L597.451 35.9084C596.824 33.1477 595.748 30.7592 594.207 28.7678L592.625 29.9922ZM595.507 36.3778C596.142 38.8616 596.466 41.6862 596.466 44.86H598.466C598.466 41.5537 598.129 38.5584 597.445 35.8822L595.507 36.3778ZM596.466 44.86C596.466 48.3213 596.025 51.1976 595.177 53.5164L597.055 54.2036C598.007 51.6024 598.466 48.4787 598.466 44.86H596.466ZM595.177 53.5164C594.315 55.8729 593.181 57.7557 591.795 59.1969L593.237 60.5831C594.851 58.9043 596.117 56.7671 597.055 54.2036L595.177 53.5164ZM591.809 59.1829C590.411 60.5803 588.83 61.576 587.061 62.1843L587.711 64.0757C589.781 63.364 591.62 62.1997 593.223 60.5971L591.809 59.1829ZM587.061 62.1843C585.246 62.8082 583.376 63.12 581.446 63.12V65.12C583.596 65.12 585.686 64.7718 587.711 64.0757L587.061 62.1843ZM581.446 63.12H568.846V65.12H581.446V63.12ZM553.716 11.74V76H555.716V11.74H553.716ZM554.716 77H582.436V75H554.716V77ZM582.436 77C587.464 77 591.87 76.1724 595.626 74.4819L594.805 72.6581C591.362 74.2076 587.248 75 582.436 75V77ZM595.633 74.4788C599.418 72.7413 602.572 70.3732 605.074 67.3702L603.538 66.0898C601.24 68.8468 598.333 71.0387 594.799 72.6612L595.633 74.4788ZM605.066 67.3795C607.624 64.3851 609.517 60.8398 610.753 56.76L608.839 56.18C607.675 60.0202 605.908 63.3148 603.545 66.0805L605.066 67.3795ZM610.753 56.76C611.985 52.6946 612.596 48.2756 612.596 43.51H610.596C610.596 48.1044 610.007 52.3254 608.839 56.18L610.753 56.76ZM612.596 43.51C612.596 38.0793 611.833 33.3042 610.281 29.2058L608.411 29.9142C609.858 33.7358 610.596 38.2607 610.596 43.51H612.596ZM610.286 29.2183C608.802 25.1387 606.689 21.7088 603.933 18.9529L602.519 20.3671C605.043 22.8912 607.01 26.0613 608.406 29.9017L610.286 29.2183ZM603.941 18.9611C601.253 16.2103 598.035 14.1504 594.3 12.7811L593.612 14.6589C597.077 15.9296 600.039 17.8297 602.511 20.3589L603.941 18.9611ZM594.305 12.783C590.643 11.4175 586.684 10.74 582.436 10.74V12.74C586.468 12.74 590.188 13.3825 593.607 14.657L594.305 12.783ZM582.436 10.74H554.716V12.74H582.436V10.74Z" fill="#B50102"/>
</g>
<defs>
<filter id="filter0_d" x="0.170013" y="0.73999" width="622.426" height="86.26" filterUnits="userSpaceOnUse" color-interpolation-filters="sRGB">
<feFlood flood-opacity="0" result="BackgroundImageFix"/>
<feColorMatrix in="SourceAlpha" type="matrix" values="0 0 0 0 0 0 0 0 0 0 0 0 0 0 0 0 0 0 127 0"/>
<feOffset/>
<feGaussianBlur stdDeviation="5"/>
<feColorMatrix type="matrix" values="0 0 0 0 0.945098 0 0 0 0 0.0470588 0 0 0 0 0.0313726 0 0 0 1 0"/>
<feBlend mode="normal" in2="BackgroundImageFix" result="effect1_dropShadow"/>
<feBlend mode="normal" in="SourceGraphic" in2="effect1_dropShadow" result="shape"/>
</filter>
</defs>
</svg>
