<svg width="583" height="82" viewBox="0 0 583 82" fill="none" xmlns="http://www.w3.org/2000/svg">
<g filter="url(#filter0_d)">
<path d="M29.068 22.112H30.068V21.112H29.068V22.112ZM29.068 71H28.068V72H29.068V71ZM42.256 71V72H43.256V71H42.256ZM42.256 22.112V21.112H41.256V22.112H42.256ZM60.232 22.112V23.112H61.232V22.112H60.232ZM60.232 11.024H61.232V10.024H60.232V11.024ZM11.092 11.024V10.024H10.092V11.024H11.092ZM11.092 22.112H10.092V23.112H11.092V22.112ZM28.068 22.112V71H30.068V22.112H28.068ZM29.068 72H42.256V70H29.068V72ZM43.256 71V22.112H41.256V71H43.256ZM42.256 23.112H60.232V21.112H42.256V23.112ZM61.232 22.112V11.024H59.232V22.112H61.232ZM60.232 10.024H11.092V12.024H60.232V10.024ZM10.092 11.024V22.112H12.092V11.024H10.092ZM11.092 23.112H29.068V21.112H11.092V23.112ZM67.1476 11.024V10.024H66.1476V11.024H67.1476ZM67.1476 71H66.1476V72H67.1476V71ZM80.3356 71V72H81.3356V71H80.3356ZM80.3356 45.128V44.128H79.3356V45.128H80.3356ZM104.612 45.128H105.612V44.128H104.612V45.128ZM104.612 71H103.612V72H104.612V71ZM117.8 71V72H118.8V71H117.8ZM117.8 11.024H118.8V10.024H117.8V11.024ZM104.612 11.024V10.024H103.612V11.024H104.612ZM104.612 34.04V35.04H105.612V34.04H104.612ZM80.3356 34.04H79.3356V35.04H80.3356V34.04ZM80.3356 11.024H81.3356V10.024H80.3356V11.024ZM66.1476 11.024V71H68.1476V11.024H66.1476ZM67.1476 72H80.3356V70H67.1476V72ZM81.3356 71V45.128H79.3356V71H81.3356ZM80.3356 46.128H104.612V44.128H80.3356V46.128ZM103.612 45.128V71H105.612V45.128H103.612ZM104.612 72H117.8V70H104.612V72ZM118.8 71V11.024H116.8V71H118.8ZM117.8 10.024H104.612V12.024H117.8V10.024ZM103.612 11.024V34.04H105.612V11.024H103.612ZM104.612 33.04H80.3356V35.04H104.612V33.04ZM81.3356 34.04V11.024H79.3356V34.04H81.3356ZM80.3356 10.024H67.1476V12.024H80.3356V10.024ZM129.409 11.024V10.024H128.409V11.024H129.409ZM129.409 71H128.409V72H129.409V71ZM174.937 71V72H175.937V71H174.937ZM174.937 59.912H175.937V58.912H174.937V59.912ZM142.597 59.912H141.597V60.912H142.597V59.912ZM142.597 45.212V44.212H141.597V45.212H142.597ZM171.661 45.212V46.212H172.661V45.212H171.661ZM171.661 34.964H172.661V33.964H171.661V34.964ZM142.597 34.964H141.597V35.964H142.597V34.964ZM142.597 22.112V21.112H141.597V22.112H142.597ZM174.265 22.112V23.112H175.265V22.112H174.265ZM174.265 11.024H175.265V10.024H174.265V11.024ZM128.409 11.024V71H130.409V11.024H128.409ZM129.409 72H174.937V70H129.409V72ZM175.937 71V59.912H173.937V71H175.937ZM174.937 58.912H142.597V60.912H174.937V58.912ZM143.597 59.912V45.212H141.597V59.912H143.597ZM142.597 46.212H171.661V44.212H142.597V46.212ZM172.661 45.212V34.964H170.661V45.212H172.661ZM171.661 33.964H142.597V35.964H171.661V33.964ZM143.597 34.964V22.112H141.597V34.964H143.597ZM142.597 23.112H174.265V21.112H142.597V23.112ZM175.265 22.112V11.024H173.265V22.112H175.265ZM174.265 10.024H129.409V12.024H174.265V10.024ZM264.377 71V72H265.144L265.343 71.2597L264.377 71ZM280.505 11.024L281.471 11.2837L281.809 10.024H280.505V11.024ZM267.569 11.024V10.024H266.779L266.596 10.7926L267.569 11.024ZM257.741 52.352V53.352H258.531L258.714 52.5834L257.741 52.352ZM257.573 52.352L256.602 52.5927L256.791 53.352H257.573V52.352ZM247.325 11.024L248.296 10.7833L248.107 10.024H247.325V11.024ZM234.977 11.024V10.024H234.2L234.008 10.7768L234.977 11.024ZM224.561 51.848V52.848H225.338L225.53 52.0952L224.561 51.848ZM224.393 51.848L223.419 52.0745L223.599 52.848H224.393V51.848ZM214.901 11.024L215.875 10.7975L215.695 10.024H214.901V11.024ZM201.713 11.024V10.024H200.414L200.746 11.2799L201.713 11.024ZM217.589 71L216.622 71.2559L216.819 72H217.589V71ZM230.945 71V72H231.73L231.916 71.2378L230.945 71ZM240.941 30.176V29.176H240.156L239.97 29.9382L240.941 30.176ZM241.109 30.176L242.079 29.9344L241.891 29.176H241.109V30.176ZM251.273 71L250.303 71.2416L250.491 72H251.273V71ZM265.343 71.2597L281.471 11.2837L279.539 10.7643L263.411 70.7403L265.343 71.2597ZM280.505 10.024H267.569V12.024H280.505V10.024ZM266.596 10.7926L256.768 52.1206L258.714 52.5834L268.542 11.2554L266.596 10.7926ZM257.741 51.352H257.573V53.352H257.741V51.352ZM258.544 52.1113L248.296 10.7833L246.354 11.2647L256.602 52.5927L258.544 52.1113ZM247.325 10.024H234.977V12.024H247.325V10.024ZM234.008 10.7768L223.592 51.6008L225.53 52.0952L235.946 11.2712L234.008 10.7768ZM224.561 50.848H224.393V52.848H224.561V50.848ZM225.367 51.6215L215.875 10.7975L213.927 11.2505L223.419 52.0745L225.367 51.6215ZM214.901 10.024H201.713V12.024H214.901V10.024ZM200.746 11.2799L216.622 71.2559L218.556 70.7441L202.68 10.7681L200.746 11.2799ZM217.589 72H230.945V70H217.589V72ZM231.916 71.2378L241.912 30.4138L239.97 29.9382L229.974 70.7622L231.916 71.2378ZM240.941 31.176H241.109V29.176H240.941V31.176ZM240.139 30.4176L250.303 71.2416L252.243 70.7584L242.079 29.9344L240.139 30.4176ZM251.273 72H264.377V70H251.273V72ZM286.581 11.024V10.024H285.581V11.024H286.581ZM286.581 71H285.581V72H286.581V71ZM332.109 71V72H333.109V71H332.109ZM332.109 59.912H333.109V58.912H332.109V59.912ZM299.769 59.912H298.769V60.912H299.769V59.912ZM299.769 45.212V44.212H298.769V45.212H299.769ZM328.833 45.212V46.212H329.833V45.212H328.833ZM328.833 34.964H329.833V33.964H328.833V34.964ZM299.769 34.964H298.769V35.964H299.769V34.964ZM299.769 22.112V21.112H298.769V22.112H299.769ZM331.437 22.112V23.112H332.437V22.112H331.437ZM331.437 11.024H332.437V10.024H331.437V11.024ZM285.581 11.024V71H287.581V11.024H285.581ZM286.581 72H332.109V70H286.581V72ZM333.109 71V59.912H331.109V71H333.109ZM332.109 58.912H299.769V60.912H332.109V58.912ZM300.769 59.912V45.212H298.769V59.912H300.769ZM299.769 46.212H328.833V44.212H299.769V46.212ZM329.833 45.212V34.964H327.833V45.212H329.833ZM328.833 33.964H299.769V35.964H328.833V33.964ZM300.769 34.964V22.112H298.769V34.964H300.769ZM299.769 23.112H331.437V21.112H299.769V23.112ZM332.437 22.112V11.024H330.437V22.112H332.437ZM331.437 10.024H286.581V12.024H331.437V10.024ZM341.05 11.024V10.024H340.05V11.024H341.05ZM341.05 71H340.05V72H341.05V71ZM386.578 71V72H387.578V71H386.578ZM386.578 59.912H387.578V58.912H386.578V59.912ZM354.238 59.912H353.238V60.912H354.238V59.912ZM354.238 45.212V44.212H353.238V45.212H354.238ZM383.302 45.212V46.212H384.302V45.212H383.302ZM383.302 34.964H384.302V33.964H383.302V34.964ZM354.238 34.964H353.238V35.964H354.238V34.964ZM354.238 22.112V21.112H353.238V22.112H354.238ZM385.906 22.112V23.112H386.906V22.112H385.906ZM385.906 11.024H386.906V10.024H385.906V11.024ZM340.05 11.024V71H342.05V11.024H340.05ZM341.05 72H386.578V70H341.05V72ZM387.578 71V59.912H385.578V71H387.578ZM386.578 58.912H354.238V60.912H386.578V58.912ZM355.238 59.912V45.212H353.238V59.912H355.238ZM354.238 46.212H383.302V44.212H354.238V46.212ZM384.302 45.212V34.964H382.302V45.212H384.302ZM383.302 33.964H354.238V35.964H383.302V33.964ZM355.238 34.964V22.112H353.238V34.964H355.238ZM354.238 23.112H385.906V21.112H354.238V23.112ZM386.906 22.112V11.024H384.906V22.112H386.906ZM385.906 10.024H341.05V12.024H385.906V10.024ZM395.519 11.024V10.024H394.519V11.024H395.519ZM395.519 71H394.519V72H395.519V71ZM408.707 71V72H409.707V71H408.707ZM408.707 51.68L407.996 50.9768L407.707 51.269V51.68H408.707ZM416.267 44.036L417.098 43.4795L416.416 42.4625L415.556 43.3328L416.267 44.036ZM434.327 71L433.496 71.5565L433.793 72H434.327V71ZM450.875 71V72H452.808L451.691 70.422L450.875 71ZM425.171 34.712L424.46 34.0087L423.87 34.6052L424.355 35.29L425.171 34.712ZM448.607 11.024L449.318 11.7273L451.003 10.024H448.607V11.024ZM432.143 11.024V10.024H431.711L431.415 10.3381L432.143 11.024ZM408.707 35.888H407.707V38.4069L409.434 36.5739L408.707 35.888ZM408.707 11.024H409.707V10.024H408.707V11.024ZM394.519 11.024V71H396.519V11.024H394.519ZM395.519 72H408.707V70H395.519V72ZM409.707 71V51.68H407.707V71H409.707ZM409.418 52.3832L416.978 44.7392L415.556 43.3328L407.996 50.9768L409.418 52.3832ZM415.436 44.5925L433.496 71.5565L435.158 70.4435L417.098 43.4795L415.436 44.5925ZM434.327 72H450.875V70H434.327V72ZM451.691 70.422L425.987 34.134L424.355 35.29L450.059 71.578L451.691 70.422ZM425.882 35.4153L449.318 11.7273L447.896 10.3207L424.46 34.0087L425.882 35.4153ZM448.607 10.024H432.143V12.024H448.607V10.024ZM431.415 10.3381L407.979 35.2021L409.434 36.5739L432.87 11.7099L431.415 10.3381ZM409.707 35.888V11.024H407.707V35.888H409.707ZM408.707 10.024H395.519V12.024H408.707V10.024ZM456.14 11.024V10.024H455.14V11.024H456.14ZM456.14 71H455.14V72H456.14V71ZM468.488 71V72H469.488V71H468.488ZM468.488 30.848V29.848H467.488V30.848H468.488ZM468.656 30.848L469.505 30.3202L469.212 29.848H468.656V30.848ZM493.604 71L492.754 71.5278L493.048 72H493.604V71ZM506.792 71V72H507.792V71H506.792ZM506.792 11.024H507.792V10.024H506.792V11.024ZM494.444 11.024V10.024H493.444V11.024H494.444ZM494.444 51.26V52.26H495.444V51.26H494.444ZM494.276 51.26L493.427 51.7882L493.72 52.26H494.276V51.26ZM469.244 11.024L470.093 10.4958L469.799 10.024H469.244V11.024ZM455.14 11.024V71H457.14V11.024H455.14ZM456.14 72H468.488V70H456.14V72ZM469.488 71V30.848H467.488V71H469.488ZM468.488 31.848H468.656V29.848H468.488V31.848ZM467.806 31.3758L492.754 71.5278L494.453 70.4722L469.505 30.3202L467.806 31.3758ZM493.604 72H506.792V70H493.604V72ZM507.792 71V11.024H505.792V71H507.792ZM506.792 10.024H494.444V12.024H506.792V10.024ZM493.444 11.024V51.26H495.444V11.024H493.444ZM494.444 50.26H494.276V52.26H494.444V50.26ZM495.125 50.7318L470.093 10.4958L468.395 11.5522L493.427 51.7882L495.125 50.7318ZM469.244 10.024H456.14V12.024H469.244V10.024ZM531.589 59.912H530.589V60.912H531.589V59.912ZM531.589 22.112V21.112H530.589V22.112H531.589ZM549.145 23.54L548.746 24.4567L548.76 24.4628L548.774 24.4685L549.145 23.54ZM554.521 27.488L553.731 28.1002L554.521 27.488ZM557.378 33.788L556.402 34.0096L556.405 34.0228L556.409 34.0358L557.378 33.788ZM557.041 50.336L557.981 50.6796L557.041 50.336ZM553.681 55.964L554.389 56.6711L554.396 56.6642L554.402 56.6571L553.681 55.964ZM518.401 11.024V10.024H517.401V11.024H518.401ZM518.401 71H517.401V72H518.401V71ZM556.201 68.732L556.612 69.6439L556.619 69.6408L556.201 68.732ZM564.685 62.348L563.925 61.6985L563.917 61.7078L564.685 62.348ZM569.809 52.772L570.766 53.062L569.809 52.772ZM569.389 27.656L568.45 27.9978L568.454 28.0102L569.389 27.656ZM563.677 18.416L562.962 19.115L562.97 19.1231L563.677 18.416ZM555.025 12.872L554.676 13.809L554.681 13.8109L555.025 12.872ZM532.589 59.912V22.112H530.589V59.912H532.589ZM531.589 23.112H540.997V21.112H531.589V23.112ZM540.997 23.112C544.155 23.112 546.725 23.5757 548.746 24.4567L549.545 22.6233C547.198 21.6003 544.336 21.112 540.997 21.112V23.112ZM548.774 24.4685C550.865 25.305 552.506 26.5188 553.731 28.1002L555.312 26.8758C553.849 24.9852 551.906 23.567 549.517 22.6115L548.774 24.4685ZM553.731 28.1002C554.973 29.7048 555.87 31.6663 556.402 34.0096L558.353 33.5664C557.765 30.9817 556.758 28.7432 555.312 26.8758L553.731 28.1002ZM556.409 34.0358C557 36.3476 557.301 38.9782 557.301 41.936H559.301C559.301 38.8457 558.987 36.0444 558.346 33.5402L556.409 34.0358ZM557.301 41.936C557.301 45.1613 556.891 47.8376 556.102 49.9924L557.981 50.6796C558.872 48.2424 559.301 45.3187 559.301 41.936H557.301ZM556.102 49.9924C555.3 52.1849 554.246 53.9337 552.961 55.2709L554.402 56.6571C555.917 55.0823 557.103 53.0791 557.981 50.6796L556.102 49.9924ZM552.974 55.2569C551.677 56.5543 550.21 57.478 548.568 58.0423L549.219 59.9337C551.161 59.266 552.886 58.1737 554.389 56.6711L552.974 55.2569ZM548.568 58.0423C546.882 58.6222 545.143 58.912 543.349 58.912V60.912C545.364 60.912 547.321 60.5858 549.219 59.9337L548.568 58.0423ZM543.349 58.912H531.589V60.912H543.349V58.912ZM517.401 11.024V71H519.401V11.024H517.401ZM518.401 72H544.273V70H518.401V72ZM544.273 72C548.973 72 553.095 71.2264 556.612 69.6439L555.791 67.8201C552.588 69.2616 548.758 70 544.273 70V72ZM556.619 69.6408C560.16 68.0153 563.111 65.7992 565.454 62.9882L563.917 61.7078C561.78 64.2728 559.075 66.3127 555.784 67.8232L556.619 69.6408ZM565.446 62.9975C567.839 60.1952 569.61 56.8778 570.766 53.062L568.852 52.482C567.769 56.0582 566.123 59.1248 563.925 61.6985L565.446 62.9975ZM570.766 53.062C571.918 49.2606 572.49 45.1296 572.49 40.676H570.49C570.49 44.9584 569.94 48.8914 568.852 52.482L570.766 53.062ZM572.49 40.676C572.49 35.6013 571.777 31.1362 570.325 27.3018L568.454 28.0102C569.802 31.5678 570.49 35.7827 570.49 40.676H572.49ZM570.329 27.3143C568.942 23.4987 566.964 20.2888 564.385 17.7089L562.97 19.1231C565.318 21.4712 567.149 24.4213 568.45 27.9977L570.329 27.3143ZM564.393 17.7171C561.876 15.1423 558.864 13.2144 555.37 11.9331L554.681 13.8109C557.907 14.9936 560.663 16.7617 562.962 19.1149L564.393 17.7171ZM555.375 11.935C551.949 10.6575 548.245 10.024 544.273 10.024V12.024C548.03 12.024 551.494 12.6225 554.676 13.809L555.375 11.935ZM544.273 10.024H518.401V12.024H544.273V10.024Z" fill="#940000"/>
</g>
<defs>
<filter id="filter0_d" x="0.0920105" y="0.0239868" width="582.398" height="81.976" filterUnits="userSpaceOnUse" color-interpolation-filters="sRGB">
<feFlood flood-opacity="0" result="BackgroundImageFix"/>
<feColorMatrix in="SourceAlpha" type="matrix" values="0 0 0 0 0 0 0 0 0 0 0 0 0 0 0 0 0 0 127 0"/>
<feOffset/>
<feGaussianBlur stdDeviation="5"/>
<feColorMatrix type="matrix" values="0 0 0 0 0.945098 0 0 0 0 0.0470588 0 0 0 0 0.0313726 0 0 0 1 0"/>
<feBlend mode="normal" in2="BackgroundImageFix" result="effect1_dropShadow"/>
<feBlend mode="normal" in="SourceGraphic" in2="effect1_dropShadow" result="shape"/>
</filter>
</defs>
</svg>
